<?xml version="1.0" encoding="UTF-8" standalone="no"?>
<!-- Created with Inkscape (http://www.inkscape.org/) -->

<svg
   width="73.314598mm"
   height="52.364269mm"
   viewBox="0 0 73.314598 52.364269"
   version="1.1"
   id="svg18976"
   inkscape:version="1.1 (c68e22c387, 2021-05-23)"
   sodipodi:docname="tspc.svg"
   xmlns:inkscape="http://www.inkscape.org/namespaces/inkscape"
   xmlns:sodipodi="http://sodipodi.sourceforge.net/DTD/sodipodi-0.dtd"
   xmlns="http://www.w3.org/2000/svg"
   xmlns:svg="http://www.w3.org/2000/svg">
  <sodipodi:namedview
     id="namedview18978"
     pagecolor="#ffffff"
     bordercolor="#666666"
     borderopacity="1.0"
     inkscape:pageshadow="2"
     inkscape:pageopacity="0.0"
     inkscape:pagecheckerboard="0"
     inkscape:document-units="mm"
     showgrid="false"
     inkscape:zoom="0.71713664"
     inkscape:cx="138.74622"
     inkscape:cy="98.307625"
     inkscape:window-width="1920"
     inkscape:window-height="991"
     inkscape:window-x="-9"
     inkscape:window-y="-9"
     inkscape:window-maximized="1"
     inkscape:current-layer="layer1" />
  <defs
     id="defs18973" />
  <g
     inkscape:label="Layer 1"
     inkscape:groupmode="layer"
     id="layer1"
     transform="translate(-68.307301,-122.31786)">
    <g
       style="fill:#000000;fill-opacity:0;stroke:#000000;stroke-width:60;stroke-linecap:round;stroke-linejoin:round;stroke-opacity:1"
       id="g16046"
       transform="matrix(0.00254,0,0,0.00254,-111.0866,-130.33554)">
      <g
         id="g16044">
        <path
           style="fill:none;fill-opacity:0;stroke:#000000;stroke-width:60;stroke-linecap:round;stroke-linejoin:round;stroke-opacity:1"
           d="m 92600,109000 v 2000"
           id="path16020" />
        <path
           style="fill:none;fill-opacity:0;stroke:#000000;stroke-width:60;stroke-linecap:round;stroke-linejoin:round;stroke-opacity:1"
           d="m 93600,111200 400,-200"
           id="path16022" />
        <path
           style="fill:none;fill-opacity:0;stroke:#000000;stroke-width:60;stroke-linecap:round;stroke-linejoin:round;stroke-opacity:1"
           d="m 94000,111000 -400,-200"
           id="path16024" />
        <path
           style="fill:none;fill-opacity:0;stroke:#000000;stroke-width:60;stroke-linecap:round;stroke-linejoin:round;stroke-opacity:1"
           d="m 94000,111000 v 0 h -1000 v -2000 h 1000 v 0"
           id="path16026" />
        <path
           d="m 94000,109000 v -1000"
           id="path16028" />
        <path
           d="M 92600,110000 H 91600"
           id="path16030" />
        <path
           d="m 94000,111000 v 1000"
           id="path16032" />
        <text
           x="91000"
           y="109250"
           textLength="1107.6378"
           font-size="666.654px"
           lengthAdjust="spacingAndGlyphs"
           text-anchor="middle"
           opacity="0"
           id="text16034">M9</text>
        <g
           class="stroked-text"
           id="g16042">
          <desc
             id="desc16036">M9</desc>
          <path
             d="m 90595,109226 v -500 l 166,357 167,-357 v 500"
             id="path16038" />
          <path
             d="m 91190,109226 h 95 l 48,-24 24,-24 47,-71 24,-96 v -190 l -24,-48 -24,-23 -47,-24 h -95 l -48,24 -24,23 -24,48 v 119 l 24,48 24,23 48,24 h 95 l 47,-24 24,-23 24,-48"
             id="path16040" />
        </g>
      </g>
    </g>
    <g
       style="fill:#000000;fill-opacity:0;stroke:#000000;stroke-width:60;stroke-linecap:round;stroke-linejoin:round;stroke-opacity:1"
       id="g16074"
       transform="matrix(0.00254,0,0,0.00254,-111.0866,-130.33554)">
      <g
         id="g16072">
        <path
           style="fill:none;fill-opacity:0;stroke:#000000;stroke-width:60;stroke-linecap:round;stroke-linejoin:round;stroke-opacity:1"
           d="m 84600,111000 v 2000"
           id="path16048" />
        <path
           style="fill:none;fill-opacity:0;stroke:#000000;stroke-width:60;stroke-linecap:round;stroke-linejoin:round;stroke-opacity:1"
           d="m 85600,113200 400,-200"
           id="path16050" />
        <path
           style="fill:none;fill-opacity:0;stroke:#000000;stroke-width:60;stroke-linecap:round;stroke-linejoin:round;stroke-opacity:1"
           d="m 86000,113000 -400,-200"
           id="path16052" />
        <path
           style="fill:none;fill-opacity:0;stroke:#000000;stroke-width:60;stroke-linecap:round;stroke-linejoin:round;stroke-opacity:1"
           d="m 86000,113000 v 0 h -1000 v -2000 h 1000 v 0"
           id="path16054" />
        <path
           d="m 86000,111000 v -1000"
           id="path16056" />
        <path
           d="M 84600,112000 H 83600"
           id="path16058" />
        <path
           d="m 86000,113000 v 1000"
           id="path16060" />
        <text
           x="83669.172"
           y="112782.99"
           textLength="1107.6378"
           font-size="666.654px"
           lengthAdjust="spacingAndGlyphs"
           text-anchor="middle"
           opacity="0"
           id="text16062">M6</text>
        <g
           class="stroked-text"
           id="g16070">
          <desc
             id="desc16064">M6</desc>
          <path
             d="m 83264,112759 v -500 l 167,357 166,-357 v 500"
             id="path16066" />
          <path
             d="m 84050,112259 h -96 l -47,23 -24,24 -48,72 -23,95 v 190 l 23,48 24,24 48,24 h 95 l 48,-24 23,-24 24,-48 v -119 l -24,-47 -23,-24 -48,-24 h -95 l -48,24 -24,24 -23,47"
             id="path16068" />
        </g>
      </g>
    </g>
    <g
       style="fill:#000000;fill-opacity:0;stroke:#000000;stroke-width:60;stroke-linecap:round;stroke-linejoin:round;stroke-opacity:1"
       id="g16104"
       transform="matrix(0.00254,0,0,0.00254,-111.0866,-130.33554)">
      <g
         id="g16102">
        <circle
           cx="92500"
           cy="104000"
           r="100"
           id="circle16076" />
        <path
           style="fill:none;fill-opacity:0;stroke:#000000;stroke-width:60;stroke-linecap:round;stroke-linejoin:round;stroke-opacity:1"
           d="m 92600,103000 v 2000"
           id="path16078" />
        <path
           style="fill:none;fill-opacity:0;stroke:#000000;stroke-width:60;stroke-linecap:round;stroke-linejoin:round;stroke-opacity:1"
           d="m 93000,103000 400,200"
           id="path16080" />
        <path
           style="fill:none;fill-opacity:0;stroke:#000000;stroke-width:60;stroke-linecap:round;stroke-linejoin:round;stroke-opacity:1"
           d="m 93000,103000 400,-200"
           id="path16082" />
        <path
           style="fill:none;fill-opacity:0;stroke:#000000;stroke-width:60;stroke-linecap:round;stroke-linejoin:round;stroke-opacity:1"
           d="m 94000,105000 v 0 h -1000 v -2000 h 1000 v 0"
           id="path16084" />
        <path
           d="m 94000,105000 v 1000"
           id="path16086" />
        <path
           d="M 92600,104000 H 91600"
           id="path16088" />
        <path
           d="m 94000,103000 v -1000"
           id="path16090" />
        <text
           x="91000"
           y="103250"
           textLength="1107.6378"
           font-size="666.654px"
           lengthAdjust="spacingAndGlyphs"
           text-anchor="middle"
           opacity="0"
           id="text16092">M8</text>
        <g
           class="stroked-text"
           id="g16100">
          <desc
             id="desc16094">M8</desc>
          <path
             d="m 90595,103226 v -500 l 166,357 167,-357 v 500"
             id="path16096" />
          <path
             d="m 91238,102940 -48,-24 -24,-24 -24,-47 v -24 l 24,-48 24,-23 48,-24 h 95 l 47,24 24,23 24,48 v 24 l -24,47 -24,24 -47,24 h -95 l -48,24 -24,24 -24,47 v 95 l 24,48 24,24 48,24 h 95 l 47,-24 24,-24 24,-48 v -95 l -24,-47 -24,-24 -47,-24"
             id="path16098" />
        </g>
      </g>
    </g>
    <g
       style="fill:#000000;fill-opacity:0;stroke:#000000;stroke-width:60;stroke-linecap:round;stroke-linejoin:round;stroke-opacity:1"
       id="g16136"
       transform="matrix(0.00254,0,0,0.00254,-111.0866,-130.33554)">
      <g
         id="g16134">
        <circle
           cx="76500"
           cy="104000"
           r="100"
           id="circle16106" />
        <path
           style="fill:none;fill-opacity:0;stroke:#000000;stroke-width:60;stroke-linecap:round;stroke-linejoin:round;stroke-opacity:1"
           d="m 76600,103000 v 2000"
           id="path16108" />
        <path
           style="fill:none;fill-opacity:0;stroke:#000000;stroke-width:60;stroke-linecap:round;stroke-linejoin:round;stroke-opacity:1"
           d="m 77000,103000 400,200"
           id="path16110" />
        <path
           style="fill:none;fill-opacity:0;stroke:#000000;stroke-width:60;stroke-linecap:round;stroke-linejoin:round;stroke-opacity:1"
           d="m 77000,103000 400,-200"
           id="path16112" />
        <path
           style="fill:none;fill-opacity:0;stroke:#000000;stroke-width:60;stroke-linecap:round;stroke-linejoin:round;stroke-opacity:1"
           d="m 78000,105000 v 0 h -1000 v -2000 h 1000 v 0"
           id="path16114" />
        <path
           d="m 78000,105000 v 1000"
           id="path16116" />
        <path
           d="M 76600,104000 H 75600"
           id="path16118" />
        <path
           d="m 78000,103000 v -1000"
           id="path16120" />
        <text
           x="75000"
           y="103250"
           textLength="1107.6378"
           font-size="666.654px"
           lengthAdjust="spacingAndGlyphs"
           text-anchor="middle"
           opacity="0"
           id="text16122">M1</text>
        <g
           class="stroked-text"
           id="g16132">
          <desc
             id="desc16124">M1</desc>
          <path
             d="m 74595,103226 v -500 l 166,357 167,-357 v 500"
             id="path16126" />
          <path
             d="m 75428,103226 h -286"
             id="path16128" />
          <path
             d="m 75285,103226 v -500 l -47,71 -48,48 -48,24"
             id="path16130" />
        </g>
      </g>
    </g>
    <g
       style="fill:#000000;fill-opacity:0;stroke:#000000;stroke-width:60;stroke-linecap:round;stroke-linejoin:round;stroke-opacity:1"
       id="g16166"
       transform="matrix(0.00254,0,0,0.00254,-111.0866,-130.33554)">
      <g
         id="g16164">
        <circle
           cx="76500"
           cy="108000"
           r="100"
           id="circle16138" />
        <path
           style="fill:none;fill-opacity:0;stroke:#000000;stroke-width:60;stroke-linecap:round;stroke-linejoin:round;stroke-opacity:1"
           d="m 76600,107000 v 2000"
           id="path16140" />
        <path
           style="fill:none;fill-opacity:0;stroke:#000000;stroke-width:60;stroke-linecap:round;stroke-linejoin:round;stroke-opacity:1"
           d="m 77000,107000 400,200"
           id="path16142" />
        <path
           style="fill:none;fill-opacity:0;stroke:#000000;stroke-width:60;stroke-linecap:round;stroke-linejoin:round;stroke-opacity:1"
           d="m 77000,107000 400,-200"
           id="path16144" />
        <path
           style="fill:none;fill-opacity:0;stroke:#000000;stroke-width:60;stroke-linecap:round;stroke-linejoin:round;stroke-opacity:1"
           d="m 78000,109000 v 0 h -1000 v -2000 h 1000 v 0"
           id="path16146" />
        <path
           d="m 78000,109000 v 1000"
           id="path16148" />
        <path
           d="M 76600,108000 H 75600"
           id="path16150" />
        <path
           d="m 78000,107000 v -1000"
           id="path16152" />
        <text
           x="75000"
           y="107250"
           textLength="1107.6378"
           font-size="666.654px"
           lengthAdjust="spacingAndGlyphs"
           text-anchor="middle"
           opacity="0"
           id="text16154">M2</text>
        <g
           class="stroked-text"
           id="g16162">
          <desc
             id="desc16156">M2</desc>
          <path
             d="m 74595,107226 v -500 l 166,357 167,-357 v 500"
             id="path16158" />
          <path
             d="m 75142,106773 24,-23 48,-24 h 119 l 47,24 24,23 24,48 v 48 l -24,71 -285,286 h 309"
             id="path16160" />
        </g>
      </g>
    </g>
    <g
       style="fill:#000000;fill-opacity:0;stroke:#000000;stroke-width:60;stroke-linecap:round;stroke-linejoin:round;stroke-opacity:1"
       id="g16196"
       transform="matrix(0.00254,0,0,0.00254,-111.0866,-130.33554)">
      <g
         id="g16194">
        <circle
           cx="84500"
           cy="108000"
           r="100"
           id="circle16168" />
        <path
           style="fill:none;fill-opacity:0;stroke:#000000;stroke-width:60;stroke-linecap:round;stroke-linejoin:round;stroke-opacity:1"
           d="m 84600,107000 v 2000"
           id="path16170" />
        <path
           style="fill:none;fill-opacity:0;stroke:#000000;stroke-width:60;stroke-linecap:round;stroke-linejoin:round;stroke-opacity:1"
           d="m 85000,107000 400,200"
           id="path16172" />
        <path
           style="fill:none;fill-opacity:0;stroke:#000000;stroke-width:60;stroke-linecap:round;stroke-linejoin:round;stroke-opacity:1"
           d="m 85000,107000 400,-200"
           id="path16174" />
        <path
           style="fill:none;fill-opacity:0;stroke:#000000;stroke-width:60;stroke-linecap:round;stroke-linejoin:round;stroke-opacity:1"
           d="m 86000,109000 v 0 h -1000 v -2000 h 1000 v 0"
           id="path16176" />
        <path
           d="m 86000,109000 v 1000"
           id="path16178" />
        <path
           d="M 84600,108000 H 83600"
           id="path16180" />
        <path
           d="m 86000,107000 v -1000"
           id="path16182" />
        <text
           x="83700.078"
           y="107618.78"
           textLength="1107.6378"
           font-size="666.654px"
           lengthAdjust="spacingAndGlyphs"
           text-anchor="middle"
           opacity="0"
           id="text16184">M5</text>
        <g
           class="stroked-text"
           id="g16192">
          <desc
             id="desc16186">M5</desc>
          <path
             d="m 83295,107594 v -500 l 166,358 167,-358 v 500"
             id="path16188" />
          <path
             d="m 84104,107094 h -238 l -24,239 24,-24 48,-24 h 119 l 48,24 23,24 24,47 v 119 l -24,48 -23,24 -48,23 h -119 l -48,-23 -24,-24"
             id="path16190" />
        </g>
      </g>
    </g>
    <g
       style="fill:#000000;fill-opacity:0;stroke:#000000;stroke-width:60;stroke-linecap:round;stroke-linejoin:round;stroke-opacity:1"
       id="g16228"
       transform="matrix(0.00254,0,0,0.00254,-111.0866,-130.33554)">
      <g
         id="g16226">
        <circle
           cx="84500"
           cy="104000"
           r="100"
           id="circle16198" />
        <path
           style="fill:none;fill-opacity:0;stroke:#000000;stroke-width:60;stroke-linecap:round;stroke-linejoin:round;stroke-opacity:1"
           d="m 84600,103000 v 2000"
           id="path16200" />
        <path
           style="fill:none;fill-opacity:0;stroke:#000000;stroke-width:60;stroke-linecap:round;stroke-linejoin:round;stroke-opacity:1"
           d="m 85000,103000 400,200"
           id="path16202" />
        <path
           style="fill:none;fill-opacity:0;stroke:#000000;stroke-width:60;stroke-linecap:round;stroke-linejoin:round;stroke-opacity:1"
           d="m 85000,103000 400,-200"
           id="path16204" />
        <path
           style="fill:none;fill-opacity:0;stroke:#000000;stroke-width:60;stroke-linecap:round;stroke-linejoin:round;stroke-opacity:1"
           d="m 86000,105000 v 0 h -1000 v -2000 h 1000 v 0"
           id="path16206" />
        <path
           d="m 86000,105000 v 1000"
           id="path16208" />
        <path
           d="M 84600,104000 H 83600"
           id="path16210" />
        <path
           d="m 86000,103000 v -1000"
           id="path16212" />
        <text
           x="83734.766"
           y="103668.11"
           textLength="1107.6378"
           font-size="666.654px"
           lengthAdjust="spacingAndGlyphs"
           text-anchor="middle"
           opacity="0"
           id="text16214">M4</text>
        <g
           class="stroked-text"
           id="g16224">
          <desc
             id="desc16216">M4</desc>
          <path
             d="m 83330,103644 v -500 l 166,357 167,-357 v 500"
             id="path16218" />
          <path
             d="m 84115,103310 v 334"
             id="path16220" />
          <path
             d="m 83996,103120 -119,357 h 310"
             id="path16222" />
        </g>
      </g>
    </g>
    <g
       style="fill:#000000;fill-opacity:0;stroke:#000000;stroke-width:60;stroke-linecap:round;stroke-linejoin:round;stroke-opacity:1"
       id="g16256"
       transform="matrix(0.00254,0,0,0.00254,-111.0866,-130.33554)">
      <g
         id="g16254">
        <path
           style="fill:none;fill-opacity:0;stroke:#000000;stroke-width:60;stroke-linecap:round;stroke-linejoin:round;stroke-opacity:1"
           d="m 76600,115000 v 2000"
           id="path16230" />
        <path
           style="fill:none;fill-opacity:0;stroke:#000000;stroke-width:60;stroke-linecap:round;stroke-linejoin:round;stroke-opacity:1"
           d="m 77600,117200 400,-200"
           id="path16232" />
        <path
           style="fill:none;fill-opacity:0;stroke:#000000;stroke-width:60;stroke-linecap:round;stroke-linejoin:round;stroke-opacity:1"
           d="m 78000,117000 -400,-200"
           id="path16234" />
        <path
           style="fill:none;fill-opacity:0;stroke:#000000;stroke-width:60;stroke-linecap:round;stroke-linejoin:round;stroke-opacity:1"
           d="m 78000,117000 v 0 h -1000 v -2000 h 1000 v 0"
           id="path16236" />
        <path
           d="m 78000,115000 v -1000"
           id="path16238" />
        <path
           d="M 76600,116000 H 75600"
           id="path16240" />
        <path
           d="m 78000,117000 v 1000"
           id="path16242" />
        <text
           x="75000"
           y="115250"
           textLength="1107.6378"
           font-size="666.654px"
           lengthAdjust="spacingAndGlyphs"
           text-anchor="middle"
           opacity="0"
           id="text16244">M3</text>
        <g
           class="stroked-text"
           id="g16252">
          <desc
             id="desc16246">M3</desc>
          <path
             d="m 74595,115226 v -500 l 166,357 167,-357 v 500"
             id="path16248" />
          <path
             d="m 75119,114726 h 309 l -167,190 h 72 l 47,24 24,24 24,47 v 119 l -24,48 -24,24 -47,24 h -143 l -48,-24 -23,-24"
             id="path16250" />
        </g>
      </g>
    </g>
    <g
       style="fill:#000000;fill-opacity:0;stroke:#000000;stroke-width:60;stroke-linecap:round;stroke-linejoin:round;stroke-opacity:1"
       id="g16274"
       transform="matrix(0.00254,0,0,0.00254,-111.0866,-130.33554)">
      <g
         id="g16272">
        <path
           style="fill:none;fill-opacity:0;stroke:#000000;stroke-width:60;stroke-linecap:round;stroke-linejoin:round;stroke-opacity:1"
           d="m 86000,118000 v 500 h 500 l -500,500 -500,-500 h 500"
           id="path16258" />
        <text
           x="86000"
           y="120046.26"
           textLength="1583.8188"
           font-size="666.654px"
           lengthAdjust="spacingAndGlyphs"
           text-anchor="middle"
           opacity="0"
           id="text16260">GND</text>
        <g
           class="stroked-text"
           id="g16270">
          <desc
             id="desc16262">GND</desc>
          <path
             d="m 85619,119546 -48,-24 h -71 l -72,24 -48,47 -23,48 -24,95 v 72 l 24,95 23,47 48,48 72,24 h 47 l 72,-24 23,-24 v -166 h -95"
             id="path16264" />
          <path
             d="m 85857,120022 v -500 l 285,500 v -500"
             id="path16266" />
          <path
             d="m 86380,120022 v -500 h 120 l 71,24 48,47 23,48 24,95 v 72 l -24,95 -23,47 -48,48 -71,24 h -120"
             id="path16268" />
        </g>
      </g>
    </g>
    <g
       style="fill:#000000;fill-opacity:0;stroke:#000000;stroke-width:60;stroke-linecap:round;stroke-linejoin:round;stroke-opacity:1"
       id="g16302"
       transform="matrix(0.00254,0,0,0.00254,-111.0866,-130.33554)">
      <g
         id="g16300">
        <path
           style="fill:none;fill-opacity:0;stroke:#000000;stroke-width:60;stroke-linecap:round;stroke-linejoin:round;stroke-opacity:1"
           d="m 84600,115000 v 2000"
           id="path16276" />
        <path
           style="fill:none;fill-opacity:0;stroke:#000000;stroke-width:60;stroke-linecap:round;stroke-linejoin:round;stroke-opacity:1"
           d="m 85600,117200 400,-200"
           id="path16278" />
        <path
           style="fill:none;fill-opacity:0;stroke:#000000;stroke-width:60;stroke-linecap:round;stroke-linejoin:round;stroke-opacity:1"
           d="m 86000,117000 -400,-200"
           id="path16280" />
        <path
           style="fill:none;fill-opacity:0;stroke:#000000;stroke-width:60;stroke-linecap:round;stroke-linejoin:round;stroke-opacity:1"
           d="m 86000,117000 v 0 h -1000 v -2000 h 1000 v 0"
           id="path16282" />
        <path
           d="m 86000,115000 v -1000"
           id="path16284" />
        <path
           d="M 84600,116000 H 83600"
           id="path16286" />
        <path
           d="m 86000,117000 v 1000"
           id="path16288" />
        <text
           x="83734.766"
           y="115520.08"
           textLength="1107.6378"
           font-size="666.654px"
           lengthAdjust="spacingAndGlyphs"
           text-anchor="middle"
           opacity="0"
           id="text16290">M7</text>
        <g
           class="stroked-text"
           id="g16298">
          <desc
             id="desc16292">M7</desc>
          <path
             d="m 83330,115496 v -500 l 166,357 167,-357 v 500"
             id="path16294" />
          <path
             d="m 83853,114996 h 334 l -215,500"
             id="path16296" />
        </g>
      </g>
    </g>
    <g
       style="fill:#000000;fill-opacity:0;stroke:#000000;stroke-width:60;stroke-linecap:round;stroke-linejoin:round;stroke-opacity:1"
       id="g16334"
       transform="matrix(0.00254,0,0,0.00254,-111.0866,-130.33554)">
      <g
         id="g16332">
        <path
           style="fill:none;fill-opacity:0;stroke:#000000;stroke-width:60;stroke-linecap:round;stroke-linejoin:round;stroke-opacity:1"
           d="m 92600,115000 v 2000"
           id="path16304" />
        <path
           style="fill:none;fill-opacity:0;stroke:#000000;stroke-width:60;stroke-linecap:round;stroke-linejoin:round;stroke-opacity:1"
           d="m 93600,117200 400,-200"
           id="path16306" />
        <path
           style="fill:none;fill-opacity:0;stroke:#000000;stroke-width:60;stroke-linecap:round;stroke-linejoin:round;stroke-opacity:1"
           d="m 94000,117000 -400,-200"
           id="path16308" />
        <path
           style="fill:none;fill-opacity:0;stroke:#000000;stroke-width:60;stroke-linecap:round;stroke-linejoin:round;stroke-opacity:1"
           d="m 94000,117000 v 0 h -1000 v -2000 h 1000 v 0"
           id="path16310" />
        <path
           d="m 94000,115000 v -1000"
           id="path16312" />
        <path
           d="M 92600,116000 H 91600"
           id="path16314" />
        <path
           d="m 94000,117000 v 1000"
           id="path16316" />
        <text
           x="91000"
           y="115250"
           textLength="1583.8188"
           font-size="666.654px"
           lengthAdjust="spacingAndGlyphs"
           text-anchor="middle"
           opacity="0"
           id="text16318">M10</text>
        <g
           class="stroked-text"
           id="g16330">
          <desc
             id="desc16320">M10</desc>
          <path
             d="m 90357,115226 v -500 l 166,357 167,-357 v 500"
             id="path16322" />
          <path
             d="m 91190,115226 h -286"
             id="path16324" />
          <path
             d="m 91047,115226 v -500 l -47,71 -48,48 -48,24"
             id="path16326" />
          <path
             d="m 91500,114726 h 47 l 48,24 24,23 23,48 24,95 v 119 l -24,95 -23,48 -24,24 -48,24 h -47 l -48,-24 -24,-24 -24,-48 -24,-95 v -119 l 24,-95 24,-48 24,-23 48,-24"
             id="path16328" />
        </g>
      </g>
    </g>
    <g
       style="fill:#000000;fill-opacity:0;stroke:#000000;stroke-width:60;stroke-linecap:round;stroke-linejoin:round;stroke-opacity:1"
       id="g16380"
       transform="matrix(0.00254,0,0,0.00254,-111.0866,-130.33554)">
      <text
         x="72437.477"
         y="108285.75"
         textLength="1467.2834"
         font-size="666.654px"
         lengthAdjust="spacingAndGlyphs"
         text-anchor="end"
         opacity="0"
         id="text16362">CLK</text>
      <g
         class="stroked-text"
         id="g16376">
        <desc
           id="desc16364">CLK</desc>
        <path
           d="m 71407,108214 -24,24 -71,23 h -48 l -71,-23 -48,-48 -24,-48 -24,-95 v -71 l 24,-96 24,-47 48,-48 71,-24 h 48 l 71,24 24,24"
           id="path16366" />
        <path
           d="m 71859,108261 h -238 v -500"
           id="path16368" />
        <path
           d="m 72026,108261 v -500"
           id="path16370" />
        <path
           d="m 72312,108261 -215,-285"
           id="path16372" />
        <path
           d="m 72312,107761 -286,286"
           id="path16374" />
      </g>
      <path
         style="fill:none;fill-opacity:0;stroke:#000000;stroke-width:60;stroke-linecap:round;stroke-linejoin:round;stroke-opacity:1"
         d="m 73000,108000 -437.52,-500.16 h -1904.96 v 500.16 500.16 h 1904.96 z"
         id="path16378" />
    </g>
    <g
       style="fill:#000000;fill-opacity:0;stroke:#000000;stroke-width:60;stroke-linecap:round;stroke-linejoin:round;stroke-opacity:1"
       id="g16474"
       transform="matrix(0.00254,0,0,0.00254,-111.0866,-130.33554)">
      <text
         x="98187.523"
         y="107285.75"
         textLength="586.33856"
         font-size="666.654px"
         lengthAdjust="spacingAndGlyphs"
         text-anchor="start"
         opacity="0"
         id="text16462">Q</text>
      <g
         class="stroked-text"
         id="g16470">
        <desc
           id="desc16464">Q</desc>
        <path
           d="m 98669,107309 -47,-24 -48,-47 -71,-72 -48,-24 h -48"
           id="path16466" />
        <path
           d="m 98431,107261 -47,-23 -48,-48 -24,-95 v -167 l 24,-95 48,-48 47,-24 h 96 l 47,24 48,48 24,95 v 167 l -24,95 -48,48 -47,23 h -96"
           id="path16468" />
      </g>
      <path
         style="fill:none;fill-opacity:0;stroke:#000000;stroke-width:60;stroke-linecap:round;stroke-linejoin:round;stroke-opacity:1"
         d="m 98000,107000 v 500.16 h 1024.016 l 437.519,-500.16 -437.519,-500.16 H 98000 Z"
         id="path16472" />
    </g>
    <g
       style="fill:#000000;fill-opacity:0;stroke:#000000;stroke-width:60;stroke-linecap:round;stroke-linejoin:round;stroke-opacity:1"
       id="g16544"
       transform="matrix(0.00254,0,0,0.00254,-111.0866,-130.33554)">
      <text
         x="84437.477"
         y="100285.75"
         textLength="2300.6299"
         font-size="666.654px"
         lengthAdjust="spacingAndGlyphs"
         text-anchor="end"
         opacity="0"
         id="text16522">+1.2V</text>
      <g
         class="stroked-text"
         id="g16540">
        <desc
           id="desc16524">+1.2V</desc>
        <path
           d="m 82288,100071 h 381"
           id="path16526" />
        <path
           d="m 82478,100261 v -381"
           id="path16528" />
        <path
           d="m 83169,100261 h -286"
           id="path16530" />
        <path
           d="m 83026,100261 v -500 l -48,72 -47,47 -48,24"
           id="path16532" />
        <path
           d="m 83383,100214 24,24 -24,23 -24,-23 24,-24 v 47"
           id="path16534" />
        <path
           d="m 83597,99809 24,-24 48,-24 h 119 l 48,24 23,24 24,48 v 47 l -24,72 -285,285 h 309"
           id="path16536" />
        <path
           d="m 84026,99761 167,500 166,-500"
           id="path16538" />
      </g>
      <path
         style="fill:none;fill-opacity:0;stroke:#000000;stroke-width:60;stroke-linecap:round;stroke-linejoin:round;stroke-opacity:1"
         d="m 85000,100000 -437.52,-500.157 h -2738.307 v 500.157 500.16 h 2738.307 z"
         id="path16542" />
    </g>
    <g
       style="fill:#000000;fill-opacity:0;stroke:#000000;stroke-width:100;stroke-linecap:round;stroke-linejoin:round;stroke-opacity:1"
       id="g16812"
       transform="matrix(0.00254,0,0,0.00254,-111.0866,-130.33554)">
      <text
         x="80000"
         y="113825"
         textLength="488.58267"
         font-size="666.654px"
         lengthAdjust="spacingAndGlyphs"
         text-anchor="start"
         opacity="0"
         id="text16802">A</text>
      <g
         class="stroked-text"
         id="g16810">
        <desc
           id="desc16804">A</desc>
        <path
           d="m 80160,113658 h 238"
           id="path16806" />
        <path
           d="m 80112,113801 167,-500 166,500"
           id="path16808" />
      </g>
    </g>
    <g
       style="fill:#000000;fill-opacity:0;stroke:#000000;stroke-width:100;stroke-linecap:round;stroke-linejoin:round;stroke-opacity:1"
       id="g16922"
       transform="matrix(0.00254,0,0,0.00254,-111.0866,-130.33554)">
      <text
         x="88000"
         y="109825"
         textLength="560"
         font-size="666.654px"
         lengthAdjust="spacingAndGlyphs"
         text-anchor="start"
         opacity="0"
         id="text16914">B</text>
      <g
         class="stroked-text"
         id="g16920">
        <desc
           id="desc16916">B</desc>
        <path
           d="m 88350,109539 72,24 23,23 24,48 v 71 l -24,48 -23,24 -48,24 h -190 v -500 h 166 l 48,24 24,23 23,48 v 48 l -23,47 -24,24 -48,24 h -166"
           id="path16918" />
      </g>
    </g>
    <path
       d="m 117.5134,149.06446 h 4.064"
       id="path17948"
       style="fill:#000000;fill-opacity:0;stroke:#000000;stroke-width:0.1524;stroke-linecap:round;stroke-linejoin:round;stroke-opacity:1" />
    <path
       d="m 117.5134,143.98446 v 5.08"
       id="path17950"
       style="fill:#000000;fill-opacity:0;stroke:#000000;stroke-width:0.1524;stroke-linecap:round;stroke-linejoin:round;stroke-opacity:1" />
    <path
       d="m 127.6734,141.44446 v 2.54"
       id="path17952"
       style="fill:#000000;fill-opacity:0;stroke:#000000;stroke-width:0.1524;stroke-linecap:round;stroke-linejoin:round;stroke-opacity:1" />
    <path
       d="m 127.6734,159.22446 v -5.08"
       id="path17954"
       style="fill:#000000;fill-opacity:0;stroke:#000000;stroke-width:0.1524;stroke-linecap:round;stroke-linejoin:round;stroke-opacity:1" />
    <path
       d="m 101.2574,143.98446 v 10.16"
       id="path17962"
       style="fill:#000000;fill-opacity:0;stroke:#000000;stroke-width:0.1524;stroke-linecap:round;stroke-linejoin:round;stroke-opacity:1" />
    <path
       d="m 114.9734,133.82446 h 6.604"
       id="path17964"
       style="fill:#000000;fill-opacity:0;stroke:#000000;stroke-width:0.1524;stroke-linecap:round;stroke-linejoin:round;stroke-opacity:1" />
    <path
       d="m 127.6734,138.90446 v 2.54"
       id="path17966"
       style="fill:#000000;fill-opacity:0;stroke:#000000;stroke-width:0.1524;stroke-linecap:round;stroke-linejoin:round;stroke-opacity:1" />
    <path
       d="m 127.6734,141.44446 h 7.62"
       id="path17970"
       style="fill:#000000;fill-opacity:0;stroke:#000000;stroke-width:0.1524;stroke-linecap:round;stroke-linejoin:round;stroke-opacity:1" />
    <path
       d="m 135.2934,141.44446 v -15.24"
       id="path17972"
       style="fill:#000000;fill-opacity:0;stroke:#000000;stroke-width:0.1524;stroke-linecap:round;stroke-linejoin:round;stroke-opacity:1" />
    <path
       d="m 135.2934,141.44446 h 2.54"
       id="path17976"
       style="fill:#000000;fill-opacity:0;stroke:#000000;stroke-width:0.1524;stroke-linecap:round;stroke-linejoin:round;stroke-opacity:1" />
    <path
       d="m 101.2574,143.98446 h 16.256"
       id="path17978"
       style="fill:#000000;fill-opacity:0;stroke:#000000;stroke-width:0.1524;stroke-linecap:round;stroke-linejoin:round;stroke-opacity:1" />
    <path
       d="m 99.7334,133.82446 h 1.524"
       id="path17980"
       style="fill:#000000;fill-opacity:0;stroke:#000000;stroke-width:0.1524;stroke-linecap:round;stroke-linejoin:round;stroke-opacity:1" />
    <path
       d="m 80.9374,143.98446 h 20.32"
       id="path17986"
       style="fill:#000000;fill-opacity:0;stroke:#000000;stroke-width:0.1524;stroke-linecap:round;stroke-linejoin:round;stroke-opacity:1" />
    <path
       d="m 135.2934,126.20446 h -58.42"
       id="path17988"
       style="fill:#000000;fill-opacity:0;stroke:#000000;stroke-width:0.1524;stroke-linecap:round;stroke-linejoin:round;stroke-opacity:1" />
    <path
       d="m 107.3534,128.74446 h 20.32"
       id="path17990"
       style="fill:#000000;fill-opacity:0;stroke:#000000;stroke-width:0.1524;stroke-linecap:round;stroke-linejoin:round;stroke-opacity:1" />
    <path
       d="m 107.3534,123.66446 v 5.08"
       id="path17992"
       style="fill:#000000;fill-opacity:0;stroke:#000000;stroke-width:0.1524;stroke-linecap:round;stroke-linejoin:round;stroke-opacity:1" />
    <path
       d="m 104.8134,123.66446 h 2.54"
       id="path17996"
       style="fill:#000000;fill-opacity:0;stroke:#000000;stroke-width:0.1524;stroke-linecap:round;stroke-linejoin:round;stroke-opacity:1" />
    <path
       d="m 114.9734,149.06446 v -15.24"
       id="path18000"
       style="fill:#000000;fill-opacity:0;stroke:#000000;stroke-width:0.1524;stroke-linecap:round;stroke-linejoin:round;stroke-opacity:1" />
    <path
       d="m 87.0334,128.74446 h 20.32"
       id="path18004"
       style="fill:#000000;fill-opacity:0;stroke:#000000;stroke-width:0.1524;stroke-linecap:round;stroke-linejoin:round;stroke-opacity:1" />
    <path
       d="m 87.0334,159.22446 h 12.7"
       id="path18006"
       style="fill:#000000;fill-opacity:0;stroke:#000000;stroke-width:0.1524;stroke-linecap:round;stroke-linejoin:round;stroke-opacity:1" />
    <path
       d="m 87.0334,159.22446 v -10.16"
       id="path18008"
       style="fill:#000000;fill-opacity:0;stroke:#000000;stroke-width:0.1524;stroke-linecap:round;stroke-linejoin:round;stroke-opacity:1" />
    <path
       d="m 74.3334,143.98446 h 6.604"
       id="path18014"
       style="fill:#000000;fill-opacity:0;stroke:#000000;stroke-width:0.1524;stroke-linecap:round;stroke-linejoin:round;stroke-opacity:1" />
    <path
       d="m 101.2574,164.30446 h -1.524"
       id="path18016"
       style="fill:#000000;fill-opacity:0;stroke:#000000;stroke-width:0.1524;stroke-linecap:round;stroke-linejoin:round;stroke-opacity:1" />
    <path
       d="m 99.7334,159.22446 v -25.4"
       id="path18018"
       style="fill:#000000;fill-opacity:0;stroke:#000000;stroke-width:0.1524;stroke-linecap:round;stroke-linejoin:round;stroke-opacity:1" />
    <path
       d="m 99.7334,164.30446 v -5.08"
       id="path18020"
       style="fill:#000000;fill-opacity:0;stroke:#000000;stroke-width:0.1524;stroke-linecap:round;stroke-linejoin:round;stroke-opacity:1" />
    <path
       d="m 107.3534,149.06446 h 7.62"
       id="path18022"
       style="fill:#000000;fill-opacity:0;stroke:#000000;stroke-width:0.1524;stroke-linecap:round;stroke-linejoin:round;stroke-opacity:1" />
    <path
       d="m 114.9734,149.06446 v 15.24"
       id="path18024"
       style="fill:#000000;fill-opacity:0;stroke:#000000;stroke-width:0.1524;stroke-linecap:round;stroke-linejoin:round;stroke-opacity:1" />
    <path
       d="m 114.9734,164.30446 h 6.604"
       id="path18026"
       style="fill:#000000;fill-opacity:0;stroke:#000000;stroke-width:0.1524;stroke-linecap:round;stroke-linejoin:round;stroke-opacity:1" />
    <path
       d="m 107.3534,169.38446 h 20.32"
       id="path18028"
       style="fill:#000000;fill-opacity:0;stroke:#000000;stroke-width:0.1524;stroke-linecap:round;stroke-linejoin:round;stroke-opacity:1" />
    <path
       d="m 87.0334,169.38446 h 20.32"
       id="path18030"
       style="fill:#000000;fill-opacity:0;stroke:#000000;stroke-width:0.1524;stroke-linecap:round;stroke-linejoin:round;stroke-opacity:1" />
    <path
       d="m 76.8734,133.82446 v 30.48"
       id="path18040"
       style="fill:#000000;fill-opacity:0;stroke:#000000;stroke-width:0.1524;stroke-linecap:round;stroke-linejoin:round;stroke-opacity:1" />
    <path
       d="m 76.8734,133.82446 h 4.064"
       id="path18042"
       style="fill:#000000;fill-opacity:0;stroke:#000000;stroke-width:0.1524;stroke-linecap:round;stroke-linejoin:round;stroke-opacity:1" />
    <path
       d="m 76.8734,126.20446 v 7.62"
       id="path18044"
       style="fill:#000000;fill-opacity:0;stroke:#000000;stroke-width:0.1524;stroke-linecap:round;stroke-linejoin:round;stroke-opacity:1" />
    <path
       d="m 76.8734,164.30446 h 4.064"
       id="path18046"
       style="fill:#000000;fill-opacity:0;stroke:#000000;stroke-width:0.1524;stroke-linecap:round;stroke-linejoin:round;stroke-opacity:1" />
    <circle
       cx="127.6734"
       cy="141.44446"
       r="0.45719999"
       id="circle18182"
       style="fill:#000000;fill-opacity:1;stroke:#000000;stroke-width:0.1524;stroke-linecap:round;stroke-linejoin:round;stroke-opacity:1" />
    <circle
       cx="135.2934"
       cy="141.44446"
       r="0.45719999"
       id="circle18184"
       style="fill:#000000;fill-opacity:1;stroke:#000000;stroke-width:0.1524;stroke-linecap:round;stroke-linejoin:round;stroke-opacity:1" />
    <circle
       cx="101.2574"
       cy="143.98447"
       r="0.45719999"
       id="circle18186"
       style="fill:#000000;fill-opacity:1;stroke:#000000;stroke-width:0.1524;stroke-linecap:round;stroke-linejoin:round;stroke-opacity:1" />
    <circle
       cx="80.937401"
       cy="143.98447"
       r="0.45719999"
       id="circle18188"
       style="fill:#000000;fill-opacity:1;stroke:#000000;stroke-width:0.1524;stroke-linecap:round;stroke-linejoin:round;stroke-opacity:1" />
    <circle
       cx="107.3534"
       cy="128.74446"
       r="0.45719999"
       id="circle18190"
       style="fill:#000000;fill-opacity:1;stroke:#000000;stroke-width:0.1524;stroke-linecap:round;stroke-linejoin:round;stroke-opacity:1" />
    <circle
       cx="114.9734"
       cy="149.06445"
       r="0.45719999"
       id="circle18192"
       style="fill:#000000;fill-opacity:1;stroke:#000000;stroke-width:0.1524;stroke-linecap:round;stroke-linejoin:round;stroke-opacity:1" />
    <circle
       cx="107.3534"
       cy="149.06445"
       r="0.45719999"
       id="circle18194"
       style="fill:#000000;fill-opacity:1;stroke:#000000;stroke-width:0.1524;stroke-linecap:round;stroke-linejoin:round;stroke-opacity:1" />
    <circle
       cx="87.033401"
       cy="159.22446"
       r="0.45719999"
       id="circle18196"
       style="fill:#000000;fill-opacity:1;stroke:#000000;stroke-width:0.1524;stroke-linecap:round;stroke-linejoin:round;stroke-opacity:1" />
    <circle
       cx="99.733398"
       cy="159.22446"
       r="0.45719999"
       id="circle18198"
       style="fill:#000000;fill-opacity:1;stroke:#000000;stroke-width:0.1524;stroke-linecap:round;stroke-linejoin:round;stroke-opacity:1" />
    <circle
       cx="107.3534"
       cy="169.38446"
       r="0.45719999"
       id="circle18200"
       style="fill:#000000;fill-opacity:1;stroke:#000000;stroke-width:0.1524;stroke-linecap:round;stroke-linejoin:round;stroke-opacity:1" />
    <circle
       cx="76.873398"
       cy="133.82446"
       r="0.45719999"
       id="circle18202"
       style="fill:#000000;fill-opacity:1;stroke:#000000;stroke-width:0.1524;stroke-linecap:round;stroke-linejoin:round;stroke-opacity:1" />
  </g>
</svg>
