<?xml version="1.0" encoding="UTF-8" standalone="no"?>
<svg
   version="1.1"
   width="5.7299862cm"
   height="2.2165995cm"
   viewBox="0 0 22559.001 8726.7693"
   id="svg19202"
   sodipodi:docname="varactors.svg"
   inkscape:version="1.1 (c68e22c387, 2021-05-23)"
   xmlns:inkscape="http://www.inkscape.org/namespaces/inkscape"
   xmlns:sodipodi="http://sodipodi.sourceforge.net/DTD/sodipodi-0.dtd"
   xmlns="http://www.w3.org/2000/svg"
   xmlns:svg="http://www.w3.org/2000/svg"
   xmlns:rdf="http://www.w3.org/1999/02/22-rdf-syntax-ns#"
   xmlns:cc="http://creativecommons.org/ns#"
   xmlns:dc="http://purl.org/dc/elements/1.1/">
  <defs
     id="defs19206" />
  <sodipodi:namedview
     id="namedview19204"
     pagecolor="#ffffff"
     bordercolor="#666666"
     borderopacity="1.0"
     inkscape:pageshadow="2"
     inkscape:pageopacity="0.0"
     inkscape:pagecheckerboard="0"
     inkscape:document-units="cm"
     showgrid="false"
     inkscape:zoom="0.50689159"
     inkscape:cx="703.30621"
     inkscape:cy="375.82001"
     inkscape:window-width="2560"
     inkscape:window-height="1369"
     inkscape:window-x="1912"
     inkscape:window-y="-8"
     inkscape:window-maximized="1"
     inkscape:current-layer="svg19202" />
  <title
     id="title12820">SVG Picture created as PLL.svg date 2022/06/06 10:38:52 </title>
  <desc
     id="desc12822">Picture generated by Eeschema-SVG </desc>
  <g
     style="fill:#000000;fill-opacity:1;stroke:#000000;stroke-linecap:round;stroke-linejoin:round;stroke-opacity:1"
     id="g12824"
     transform="translate(-69276.844,-40846.809)" />
  <g
     style="fill:#000000;fill-opacity:0;stroke:#000000;stroke-width:62.5197;stroke-linecap:round;stroke-linejoin:round;stroke-opacity:1"
     id="g17212"
     transform="translate(-69276.844,-40846.809)" />
  <g
     style="fill:#000000;fill-opacity:0;stroke:#000000;stroke-width:62.5197;stroke-linecap:round;stroke-linejoin:round;stroke-opacity:1"
     id="g17240"
     transform="translate(-69276.844,-40846.809)" />
  <g
     style="fill:#000000;fill-opacity:0;stroke:#000000;stroke-width:62.5197;stroke-linecap:round;stroke-linejoin:round;stroke-opacity:1"
     id="g17268"
     transform="translate(-69276.844,-40846.809)" />
  <g
     style="fill:#000000;fill-opacity:0;stroke:#000000;stroke-width:62.5197;stroke-linecap:round;stroke-linejoin:round;stroke-opacity:1"
     id="g17292"
     transform="translate(-69276.844,-40846.809)" />
  <g
     style="fill:#000000;fill-opacity:0;stroke:#000000;stroke-width:62.5197;stroke-linecap:round;stroke-linejoin:round;stroke-opacity:1"
     id="g17322"
     transform="translate(-69276.844,-40846.809)" />
  <g
     style="fill:#000000;fill-opacity:0;stroke:#000000;stroke-width:62.5197;stroke-linecap:round;stroke-linejoin:round;stroke-opacity:1"
     id="g17342"
     transform="translate(-69276.844,-40846.809)" />
  <g
     style="fill:#000000;fill-opacity:0;stroke:#000000;stroke-width:62.5197;stroke-linecap:round;stroke-linejoin:round;stroke-opacity:1"
     id="g17364"
     transform="translate(-69276.844,-40846.809)" />
  <g
     style="fill:#000000;fill-opacity:0;stroke:#000000;stroke-width:62.5197;stroke-linecap:round;stroke-linejoin:round;stroke-opacity:1"
     id="g17392"
     transform="translate(-69276.844,-40846.809)" />
  <g
     style="fill:#000000;fill-opacity:0;stroke:#000000;stroke-width:62.5197;stroke-linecap:round;stroke-linejoin:round;stroke-opacity:1"
     id="g17418"
     transform="translate(-69276.844,-40846.809)" />
  <g
     style="fill:#000000;fill-opacity:0;stroke:#000000;stroke-width:62.5197;stroke-linecap:round;stroke-linejoin:round;stroke-opacity:1"
     id="g17444"
     transform="translate(-69276.844,-40846.809)" />
  <g
     style="fill:#000000;fill-opacity:0;stroke:#000000;stroke-width:62.5197;stroke-linecap:round;stroke-linejoin:round;stroke-opacity:1"
     id="g17470"
     transform="translate(-69276.844,-40846.809)" />
  <g
     style="fill:#000000;fill-opacity:0;stroke:#000000;stroke-width:62.5197;stroke-linecap:round;stroke-linejoin:round;stroke-opacity:1"
     id="g17486"
     transform="translate(-69276.844,-40846.809)" />
  <g
     style="fill:#000000;fill-opacity:0;stroke:#000000;stroke-width:62.5197;stroke-linecap:round;stroke-linejoin:round;stroke-opacity:1"
     id="g17512"
     transform="translate(-69276.844,-40846.809)" />
  <g
     style="fill:#000000;fill-opacity:0;stroke:#000000;stroke-width:62.5197;stroke-linecap:round;stroke-linejoin:round;stroke-opacity:1"
     id="g17536"
     transform="translate(-69276.844,-40846.809)" />
  <g
     style="fill:#000000;fill-opacity:0;stroke:#000000;stroke-width:62.5197;stroke-linecap:round;stroke-linejoin:round;stroke-opacity:1"
     id="g17560"
     transform="translate(-69276.844,-40846.809)" />
  <g
     style="fill:#000000;fill-opacity:0;stroke:#000000;stroke-width:62.5197;stroke-linecap:round;stroke-linejoin:round;stroke-opacity:1"
     id="g17586"
     transform="translate(-69276.844,-40846.809)" />
  <g
     style="fill:#000000;fill-opacity:0;stroke:#000000;stroke-width:62.5197;stroke-linecap:round;stroke-linejoin:round;stroke-opacity:1"
     id="g17606"
     transform="translate(-69276.844,-40846.809)" />
  <g
     style="fill:#000000;fill-opacity:0;stroke:#000000;stroke-width:62.5197;stroke-linecap:round;stroke-linejoin:round;stroke-opacity:1"
     id="g17634"
     transform="translate(-69276.844,-40846.809)" />
  <g
     style="fill:#000000;fill-opacity:0;stroke:#000000;stroke-width:62.5197;stroke-linecap:round;stroke-linejoin:round;stroke-opacity:1"
     id="g17654"
     transform="translate(-69276.844,-40846.809)" />
  <g
     style="fill:#000000;fill-opacity:0;stroke:#000000;stroke-width:62.5197;stroke-linecap:round;stroke-linejoin:round;stroke-opacity:1"
     id="g17700"
     transform="translate(-69276.844,-40846.809)" />
  <g
     style="fill:#000000;fill-opacity:0;stroke:#000000;stroke-width:62.5197;stroke-linecap:round;stroke-linejoin:round;stroke-opacity:1"
     id="g17718"
     transform="translate(-69276.844,-40846.809)" />
  <g
     style="fill:#000000;fill-opacity:0;stroke:#000000;stroke-width:62.5197;stroke-linecap:round;stroke-linejoin:round;stroke-opacity:1"
     id="g17736"
     transform="translate(-69276.844,-40846.809)" />
  <g
     style="fill:#000000;fill-opacity:0;stroke:#000000;stroke-width:62.5197;stroke-linecap:round;stroke-linejoin:round;stroke-opacity:1"
     id="g17768"
     transform="translate(-69276.844,-40846.809)" />
  <g
     style="fill:#000000;fill-opacity:0;stroke:#000000;stroke-width:62.5197;stroke-linecap:round;stroke-linejoin:round;stroke-opacity:1"
     id="g17800"
     transform="translate(-69276.844,-40846.809)" />
  <g
     style="fill:#000000;fill-opacity:0;stroke:#000000;stroke-width:62.5197;stroke-linecap:round;stroke-linejoin:round;stroke-opacity:1"
     id="g17818"
     transform="translate(-69276.844,-40846.809)" />
  <g
     style="fill:#000000;fill-opacity:0;stroke:#000000;stroke-width:62.5197;stroke-linecap:round;stroke-linejoin:round;stroke-opacity:1"
     id="g17836"
     transform="translate(-69276.844,-40846.809)" />
  <g
     style="fill:#000000;fill-opacity:0;stroke:#000000;stroke-width:62.5197;stroke-linecap:round;stroke-linejoin:round;stroke-opacity:1"
     id="g17856"
     transform="translate(-69276.844,-40846.809)" />
  <g
     style="fill:#000000;fill-opacity:0;stroke:#000000;stroke-width:62.5197;stroke-linecap:round;stroke-linejoin:round;stroke-opacity:1"
     id="g17888"
     transform="translate(-69276.844,-40846.809)" />
  <g
     style="fill:#000000;fill-opacity:0;stroke:#000000;stroke-width:62.5197;stroke-linecap:round;stroke-linejoin:round;stroke-opacity:1"
     id="g17906"
     transform="translate(-69276.844,-40846.809)" />
  <g
     style="fill:#000000;fill-opacity:0;stroke:#000000;stroke-width:62.5197;stroke-linecap:round;stroke-linejoin:round;stroke-opacity:1"
     id="g17938"
     transform="translate(-69276.844,-40846.809)" />
  <g
     style="fill:#000000;fill-opacity:0;stroke:#000000;stroke-width:62.5197;stroke-linecap:round;stroke-linejoin:round;stroke-opacity:1"
     id="g17956"
     transform="translate(-69276.844,-40846.809)" />
  <g
     style="fill:#000000;fill-opacity:0;stroke:#000000;stroke-width:62.5197;stroke-linecap:round;stroke-linejoin:round;stroke-opacity:1"
     id="g17978"
     transform="translate(-69276.844,-40846.809)" />
  <g
     style="fill:#000000;fill-opacity:0;stroke:#000000;stroke-width:62.5197;stroke-linecap:round;stroke-linejoin:round;stroke-opacity:1"
     id="g18000"
     transform="translate(-69276.844,-40846.809)" />
  <g
     style="fill:#000000;fill-opacity:0;stroke:#000000;stroke-width:62.5197;stroke-linecap:round;stroke-linejoin:round;stroke-opacity:1"
     id="g18018"
     transform="translate(-69276.844,-40846.809)" />
  <g
     style="fill:#000000;fill-opacity:0;stroke:#000000;stroke-width:62.5197;stroke-linecap:round;stroke-linejoin:round;stroke-opacity:1"
     id="g18038"
     transform="translate(-69276.844,-40846.809)" />
  <g
     style="fill:#000000;fill-opacity:0;stroke:#000000;stroke-width:62.5197;stroke-linecap:round;stroke-linejoin:round;stroke-opacity:1"
     id="g18088"
     transform="translate(-69276.844,-40846.809)" />
  <g
     style="fill:#000000;fill-opacity:0;stroke:#000000;stroke-width:62.5197;stroke-linecap:round;stroke-linejoin:round;stroke-opacity:1"
     id="g18104"
     transform="translate(-69276.844,-40846.809)" />
  <g
     style="fill:#000000;fill-opacity:0;stroke:#000000;stroke-width:62.5197;stroke-linecap:round;stroke-linejoin:round;stroke-opacity:1"
     id="g18164"
     transform="translate(-69276.844,-40846.809)" />
  <g
     style="fill:#000000;fill-opacity:0;stroke:#000000;stroke-width:60;stroke-linecap:round;stroke-linejoin:round;stroke-opacity:1"
     id="g18440"
     transform="translate(-69276.844,-40846.809)" />
  <g
     style="fill:#000000;fill-opacity:0;stroke:#000000;stroke-width:60;stroke-linecap:round;stroke-linejoin:round;stroke-opacity:1"
     id="g18446"
     transform="translate(-69276.844,-40846.809)" />
  <g
     style="fill:#000000;fill-opacity:0;stroke:#000000;stroke-width:60;stroke-linecap:round;stroke-linejoin:round;stroke-opacity:1"
     id="g18452"
     transform="translate(-69276.844,-40846.809)" />
  <g
     style="fill:#000000;fill-opacity:0;stroke:#000000;stroke-width:60;stroke-linecap:round;stroke-linejoin:round;stroke-opacity:1"
     id="g18458"
     transform="translate(-69276.844,-40846.809)" />
  <g
     style="fill:#000000;fill-opacity:0;stroke:#000000;stroke-width:60;stroke-linecap:round;stroke-linejoin:round;stroke-opacity:1"
     id="g18464"
     transform="translate(-69276.844,-40846.809)" />
  <g
     style="fill:#000000;fill-opacity:0;stroke:#000000;stroke-width:60;stroke-linecap:round;stroke-linejoin:round;stroke-opacity:1"
     id="g18470"
     transform="translate(-69276.844,-40846.809)" />
  <g
     style="fill:#000000;fill-opacity:0;stroke:#000000;stroke-width:60;stroke-linecap:round;stroke-linejoin:round;stroke-opacity:1"
     id="g18476"
     transform="translate(-69276.844,-40846.809)" />
  <g
     style="fill:#000000;fill-opacity:0;stroke:#000000;stroke-width:60;stroke-linecap:round;stroke-linejoin:round;stroke-opacity:1"
     id="g18482"
     transform="translate(-69276.844,-40846.809)" />
  <g
     style="fill:#000000;fill-opacity:0;stroke:#000000;stroke-width:60;stroke-linecap:round;stroke-linejoin:round;stroke-opacity:1"
     id="g18488"
     transform="translate(-69276.844,-40846.809)" />
  <g
     style="fill:#000000;fill-opacity:0;stroke:#000000;stroke-width:60;stroke-linecap:round;stroke-linejoin:round;stroke-opacity:1"
     id="g18494"
     transform="translate(-69276.844,-40846.809)" />
  <g
     style="fill:#000000;fill-opacity:0;stroke:#000000;stroke-width:60;stroke-linecap:round;stroke-linejoin:round;stroke-opacity:1"
     id="g18500"
     transform="translate(-69276.844,-40846.809)" />
  <metadata
     id="metadata19265">
    <rdf:RDF>
      <cc:Work
         rdf:about="">
        <dc:title>SVG Picture created as PLL.svg date 2022/06/06 10:38:52 </dc:title>
      </cc:Work>
    </rdf:RDF>
  </metadata>
  <g
     style="fill:#000000;fill-opacity:0;stroke:#000000;stroke-width:60;stroke-linecap:round;stroke-linejoin:round;stroke-opacity:1"
     id="g12938"
     transform="translate(-58470,-74984.646)">
    <g
       id="g12936">
      <path
         style="fill:none;fill-opacity:0;stroke:#000000;stroke-width:60;stroke-linecap:round;stroke-linejoin:round;stroke-opacity:1"
         d="m 72599.961,80501.417 v 2000"
         id="path12898" />
      <path
         style="fill:none;fill-opacity:0;stroke:#000000;stroke-width:60;stroke-linecap:round;stroke-linejoin:round;stroke-opacity:1"
         d="m 73599.961,82701.417 400,-200"
         id="path12900" />
      <path
         style="fill:none;fill-opacity:0;stroke:#000000;stroke-width:60;stroke-linecap:round;stroke-linejoin:round;stroke-opacity:1"
         d="m 73999.961,82501.417 -400,-200"
         id="path12902" />
      <path
         style="fill:none;fill-opacity:0;stroke:#000000;stroke-width:60;stroke-linecap:round;stroke-linejoin:round;stroke-opacity:1"
         d="m 73999.961,82501.417 v 0 h -1000 v -2000 h 1000 v 0"
         id="path12904" />
      <path
         d="M 73999,80501 V 79501"
         id="path12906" />
      <path
         d="M 72599,81501 H 71599"
         id="path12908" />
      <path
         d="m 73999,82501 v 1000"
         id="path12910" />
      <text
         x="72999.961"
         y="79551.414"
         textLength="988.5827"
         font-size="666.654px"
         lengthAdjust="spacingAndGlyphs"
         text-anchor="middle"
         opacity="0"
         id="text12912">6u</text>
      <g
         class="stroked-text"
         id="g12922">
        <desc
           id="desc12914">6u</desc>
        <path
           d="m 72868,79027 h -95 l -47,24 -24,24 -48,71 -24,95 v 191 l 24,47 24,24 48,24 h 95 l 47,-24 24,-24 24,-47 v -119 l -24,-48 -24,-24 -47,-23 h -95 l -48,23 -24,24 -24,48"
           id="path12916" />
        <path
           d="m 73345,79194 v 333"
           id="path12918" />
        <path
           d="m 73130,79194 v 262 l 24,47 48,24 h 71 l 48,-24 24,-24"
           id="path12920" />
      </g>
      <text
         x="72999.961"
         y="80251.414"
         textLength="988.5827"
         font-size="666.654px"
         lengthAdjust="spacingAndGlyphs"
         text-anchor="middle"
         opacity="0"
         id="text12924">6u</text>
      <g
         class="stroked-text"
         id="g12934">
        <desc
           id="desc12926">6u</desc>
        <path
           d="m 72868,79727 h -95 l -47,24 -24,24 -48,71 -24,95 v 191 l 24,47 24,24 48,24 h 95 l 47,-24 24,-24 24,-47 v -119 l -24,-48 -24,-24 -47,-23 h -95 l -48,23 -24,24 -24,48"
           id="path12928" />
        <path
           d="m 73345,79894 v 333"
           id="path12930" />
        <path
           d="m 73130,79894 v 262 l 24,47 48,24 h 71 l 48,-24 24,-24"
           id="path12932" />
      </g>
    </g>
  </g>
  <g
     style="fill:#000000;fill-opacity:0;stroke:#000000;stroke-width:60;stroke-linecap:round;stroke-linejoin:round;stroke-opacity:1"
     id="g13010"
     transform="translate(-58470,-74984.646)">
    <g
       id="g13008">
      <path
         style="fill:none;fill-opacity:0;stroke:#000000;stroke-width:60;stroke-linecap:round;stroke-linejoin:round;stroke-opacity:1"
         d="m 62400,80500 v 2000"
         id="path12970" />
      <path
         style="fill:none;fill-opacity:0;stroke:#000000;stroke-width:60;stroke-linecap:round;stroke-linejoin:round;stroke-opacity:1"
         d="m 61400,82700 -400,-200"
         id="path12972" />
      <path
         style="fill:none;fill-opacity:0;stroke:#000000;stroke-width:60;stroke-linecap:round;stroke-linejoin:round;stroke-opacity:1"
         d="m 61000,82500 400,-200"
         id="path12974" />
      <path
         style="fill:none;fill-opacity:0;stroke:#000000;stroke-width:60;stroke-linecap:round;stroke-linejoin:round;stroke-opacity:1"
         d="m 61000,82500 v 0 h 1000 v -2000 h -1000 v 0"
         id="path12976" />
      <path
         d="M 61000,80500 V 79500"
         id="path12978" />
      <path
         d="m 62400,81500 h 1000"
         id="path12980" />
      <path
         d="m 61000,82500 v 1000"
         id="path12982" />
      <text
         x="62000"
         y="79550"
         textLength="988.5827"
         font-size="666.654px"
         lengthAdjust="spacingAndGlyphs"
         text-anchor="middle"
         opacity="0"
         id="text12984">6u</text>
      <g
         class="stroked-text"
         id="g12994">
        <desc
           id="desc12986">6u</desc>
        <path
           d="m 61869,79026 h -96 l -47,24 -24,23 -48,72 -24,95 v 190 l 24,48 24,24 48,24 h 95 l 48,-24 23,-24 24,-48 v -119 l -24,-47 -23,-24 -48,-24 h -95 l -48,24 -24,24 -24,47"
           id="path12988" />
        <path
           d="m 62345,79192 v 334"
           id="path12990" />
        <path
           d="m 62130,79192 v 262 l 24,48 48,24 h 71 l 48,-24 24,-24"
           id="path12992" />
      </g>
      <text
         x="62000"
         y="80250"
         textLength="988.5827"
         font-size="666.654px"
         lengthAdjust="spacingAndGlyphs"
         text-anchor="middle"
         opacity="0"
         id="text12996">6u</text>
      <g
         class="stroked-text"
         id="g13006">
        <desc
           id="desc12998">6u</desc>
        <path
           d="m 61869,79726 h -96 l -47,24 -24,23 -48,72 -24,95 v 190 l 24,48 24,24 48,24 h 95 l 48,-24 23,-24 24,-48 v -119 l -24,-47 -23,-24 -48,-24 h -95 l -48,24 -24,24 -24,47"
           id="path13000" />
        <path
           d="m 62345,79892 v 334"
           id="path13002" />
        <path
           d="m 62130,79892 v 262 l 24,48 48,24 h 71 l 48,-24 24,-24"
           id="path13004" />
      </g>
    </g>
  </g>
  <g
     style="fill:#000000;fill-opacity:0;stroke:#000000;stroke-width:60;stroke-linecap:round;stroke-linejoin:round;stroke-opacity:1"
     id="g15222"
     transform="translate(-58470,-74984.646)">
    <g
       id="g15220">
      <path
         style="fill:none;fill-opacity:0;stroke:#000000;stroke-width:60;stroke-linecap:round;stroke-linejoin:round;stroke-opacity:1"
         d="m 79399.961,80501.417 v 2000"
         id="path15182" />
      <path
         style="fill:none;fill-opacity:0;stroke:#000000;stroke-width:60;stroke-linecap:round;stroke-linejoin:round;stroke-opacity:1"
         d="m 78399.961,82701.417 -400,-200"
         id="path15184" />
      <path
         style="fill:none;fill-opacity:0;stroke:#000000;stroke-width:60;stroke-linecap:round;stroke-linejoin:round;stroke-opacity:1"
         d="m 77999.961,82501.417 400,-200"
         id="path15186" />
      <path
         style="fill:none;fill-opacity:0;stroke:#000000;stroke-width:60;stroke-linecap:round;stroke-linejoin:round;stroke-opacity:1"
         d="m 77999.961,82501.417 v 0 h 1000 v -2000 h -1000 v 0"
         id="path15188" />
      <path
         d="M 77999,80501 V 79501"
         id="path15190" />
      <path
         d="m 79399,81501 h 1000"
         id="path15192" />
      <path
         d="m 77999,82501 v 1000"
         id="path15194" />
      <text
         x="78999.961"
         y="79551.414"
         textLength="988.5827"
         font-size="666.654px"
         lengthAdjust="spacingAndGlyphs"
         text-anchor="middle"
         opacity="0"
         id="text15196">6u</text>
      <g
         class="stroked-text"
         id="g15206">
        <desc
           id="desc15198">6u</desc>
        <path
           d="m 78868,79027 h -95 l -47,24 -24,24 -48,71 -24,95 v 191 l 24,47 24,24 48,24 h 95 l 47,-24 24,-24 24,-47 v -119 l -24,-48 -24,-24 -47,-23 h -95 l -48,23 -24,24 -24,48"
           id="path15200" />
        <path
           d="m 79345,79194 v 333"
           id="path15202" />
        <path
           d="m 79130,79194 v 262 l 24,47 48,24 h 71 l 48,-24 24,-24"
           id="path15204" />
      </g>
      <text
         x="78999.961"
         y="80251.414"
         textLength="988.5827"
         font-size="666.654px"
         lengthAdjust="spacingAndGlyphs"
         text-anchor="middle"
         opacity="0"
         id="text15208">6u</text>
      <g
         class="stroked-text"
         id="g15218">
        <desc
           id="desc15210">6u</desc>
        <path
           d="m 78868,79727 h -95 l -47,24 -24,24 -48,71 -24,95 v 191 l 24,47 24,24 48,24 h 95 l 47,-24 24,-24 24,-47 v -119 l -24,-48 -24,-24 -47,-23 h -95 l -48,23 -24,24 -24,48"
           id="path15212" />
        <path
           d="m 79345,79894 v 333"
           id="path15214" />
        <path
           d="m 79130,79894 v 262 l 24,47 48,24 h 71 l 48,-24 24,-24"
           id="path15216" />
      </g>
    </g>
  </g>
  <g
     style="fill:#000000;fill-opacity:0;stroke:#000000;stroke-width:60;stroke-linecap:round;stroke-linejoin:round;stroke-opacity:1"
     id="g15264"
     transform="translate(-58470,-74984.646)">
    <g
       id="g15262">
      <path
         style="fill:none;fill-opacity:0;stroke:#000000;stroke-width:60;stroke-linecap:round;stroke-linejoin:round;stroke-opacity:1"
         d="m 65500,80500 v 2000"
         id="path15224" />
      <path
         style="fill:none;fill-opacity:0;stroke:#000000;stroke-width:60;stroke-linecap:round;stroke-linejoin:round;stroke-opacity:1"
         d="m 66500,82700 400,-200"
         id="path15226" />
      <path
         style="fill:none;fill-opacity:0;stroke:#000000;stroke-width:60;stroke-linecap:round;stroke-linejoin:round;stroke-opacity:1"
         d="m 66900,82500 -400,-200"
         id="path15228" />
      <path
         style="fill:none;fill-opacity:0;stroke:#000000;stroke-width:60;stroke-linecap:round;stroke-linejoin:round;stroke-opacity:1"
         d="m 66900,82500 v 0 h -1000 v -2000 h 1000 v 0"
         id="path15230" />
      <path
         d="M 66900,80500 V 79500"
         id="path15232" />
      <path
         d="M 65500,81500 H 64500"
         id="path15234" />
      <path
         d="m 66900,82500 v 1000"
         id="path15236" />
      <text
         x="66000"
         y="79550"
         textLength="988.5827"
         font-size="666.654px"
         lengthAdjust="spacingAndGlyphs"
         text-anchor="middle"
         opacity="0"
         id="text15238">6u</text>
      <g
         class="stroked-text"
         id="g15248">
        <desc
           id="desc15240">6u</desc>
        <path
           d="m 65869,79026 h -96 l -47,24 -24,23 -48,72 -24,95 v 190 l 24,48 24,24 48,24 h 95 l 48,-24 23,-24 24,-48 v -119 l -24,-47 -23,-24 -48,-24 h -95 l -48,24 -24,24 -24,47"
           id="path15242" />
        <path
           d="m 66345,79192 v 334"
           id="path15244" />
        <path
           d="m 66130,79192 v 262 l 24,48 48,24 h 71 l 48,-24 24,-24"
           id="path15246" />
      </g>
      <text
         x="66000"
         y="80250"
         textLength="988.5827"
         font-size="666.654px"
         lengthAdjust="spacingAndGlyphs"
         text-anchor="middle"
         opacity="0"
         id="text15250">6u</text>
      <g
         class="stroked-text"
         id="g15260">
        <desc
           id="desc15252">6u</desc>
        <path
           d="m 65869,79726 h -96 l -47,24 -24,23 -48,72 -24,95 v 190 l 24,48 24,24 48,24 h 95 l 48,-24 23,-24 24,-48 v -119 l -24,-47 -23,-24 -48,-24 h -95 l -48,24 -24,24 -24,47"
           id="path15254" />
        <path
           d="m 66345,79892 v 334"
           id="path15256" />
        <path
           d="m 66130,79892 v 262 l 24,48 48,24 h 71 l 48,-24 24,-24"
           id="path15258" />
      </g>
    </g>
  </g>
  <g
     style="fill:#000000;fill-opacity:0;stroke:#000000;stroke-width:60;stroke-linecap:round;stroke-linejoin:round;stroke-opacity:1"
     id="g17238"
     transform="translate(-58470,-74984.646)">
    <g
       transform="rotate(-90,76035.748,77437.48)"
       id="g17216">
      <text
         x="76035.75"
         y="77687.477"
         textLength="2107.6377"
         font-size="666.654px"
         lengthAdjust="spacingAndGlyphs"
         text-anchor="start"
         opacity="0"
         id="text17214">Vcont</text>
    </g>
    <g
       class="stroked-text"
       id="g17234">
      <desc
         id="desc17218">Vcont</desc>
      <path
         d="m 75761,77359 500,-166 -500,-167"
         id="path17220" />
      <path
         d="m 76238,76645 23,48 v 95 l -23,48 -24,23 -48,24 h -143 l -47,-24 -24,-23 -24,-48 v -95 l 24,-48"
         id="path17222" />
      <path
         d="m 76261,76359 -23,48 -24,24 -48,24 h -143 l -47,-24 -24,-24 -24,-48 v -71 l 24,-48 24,-24 47,-23 h 143 l 48,23 24,24 23,48 v 71"
         id="path17224" />
      <path
         d="m 75928,75978 h 333"
         id="path17226" />
      <path
         d="m 75976,75978 -24,-23 -24,-48 v -71 l 24,-48 48,-24 h 261"
         id="path17228" />
      <path
         d="m 75928,75597 v -190"
         id="path17230" />
      <path
         d="m 75761,75526 h 429 l 48,-24 23,-47 v -48"
         id="path17232" />
    </g>
    <path
       style="fill:none;fill-opacity:0;stroke:#000000;stroke-width:60;stroke-linecap:round;stroke-linejoin:round;stroke-opacity:1"
       d="m 76000,78000 500.157,-437.52 V 75014.646 H 76000 75499.843 v 2547.834 z"
       id="path17236" />
  </g>
  <g
     style="fill:#000000;fill-opacity:0;stroke:#000000;stroke-width:60;stroke-linecap:round;stroke-linejoin:round;stroke-opacity:1"
     id="g17266"
     transform="translate(-58470,-74984.646)">
    <g
       transform="rotate(-90,64035.748,77437.48)"
       id="g17244">
      <text
         x="64035.746"
         y="77687.477"
         textLength="2110.1575"
         font-size="666.654px"
         lengthAdjust="spacingAndGlyphs"
         text-anchor="start"
         opacity="0"
         id="text17242">Vcont</text>
    </g>
    <g
       class="stroked-text"
       id="g17262">
      <desc
         id="desc17246">Vcont</desc>
      <path
         d="m 63761,77359 500,-166 -500,-167"
         id="path17248" />
      <path
         d="m 64238,76645 23,48 v 95 l -23,48 -24,23 -48,24 h -143 l -47,-24 -24,-23 -24,-48 v -95 l 24,-48"
         id="path17250" />
      <path
         d="m 64261,76359 -23,48 -24,24 -48,24 h -143 l -47,-24 -24,-24 -24,-48 v -71 l 24,-48 24,-24 47,-23 h 143 l 48,23 24,24 23,48 v 71"
         id="path17252" />
      <path
         d="m 63928,75978 h 333"
         id="path17254" />
      <path
         d="m 63976,75978 -24,-23 -24,-48 v -71 l 24,-48 48,-24 h 261"
         id="path17256" />
      <path
         d="m 63928,75597 v -190"
         id="path17258" />
      <path
         d="m 63761,75526 h 429 l 48,-24 23,-47 v -48"
         id="path17260" />
    </g>
    <path
       style="fill:none;fill-opacity:0;stroke:#000000;stroke-width:60;stroke-linecap:round;stroke-linejoin:round;stroke-opacity:1"
       d="m 64000,78000 500.157,-437.52 V 75014.646 H 64000 63499.843 v 2547.834 z"
       id="path17264" />
  </g>
  <path
     d="m 2030,4515.354 v 2000"
     id="path18524"
     style="fill:#000000;fill-opacity:0;stroke:#000000;stroke-width:60;stroke-linecap:round;stroke-linejoin:round;stroke-opacity:1" />
  <path
     d="m 2030,6515.354 v 2000"
     id="path18526"
     style="fill:#000000;fill-opacity:0;stroke:#000000;stroke-width:60;stroke-linecap:round;stroke-linejoin:round;stroke-opacity:1" />
  <path
     d="m 2030,8515.354 h 500"
     id="path18528"
     style="fill:#000000;fill-opacity:0;stroke:#000000;stroke-width:60;stroke-linecap:round;stroke-linejoin:round;stroke-opacity:1" />
  <path
     d="M 2530,4515.354 H 2030"
     id="path18530"
     style="fill:#000000;fill-opacity:0;stroke:#000000;stroke-width:60;stroke-linecap:round;stroke-linejoin:round;stroke-opacity:1" />
  <path
     d="m 5530,6515.354 h 500"
     id="path18532"
     style="fill:#000000;fill-opacity:0;stroke:#000000;stroke-width:60;stroke-linecap:round;stroke-linejoin:round;stroke-opacity:1" />
  <path
     d="m 4930,6515.354 h 600"
     id="path18534"
     style="fill:#000000;fill-opacity:0;stroke:#000000;stroke-width:60;stroke-linecap:round;stroke-linejoin:round;stroke-opacity:1" />
  <path
     d="m 5530,3015.354 v 3500"
     id="path18536"
     style="fill:#000000;fill-opacity:0;stroke:#000000;stroke-width:60;stroke-linecap:round;stroke-linejoin:round;stroke-opacity:1" />
  <path
     d="m 17529,4516.354 h 2000"
     id="path18538"
     style="fill:#000000;fill-opacity:0;stroke:#000000;stroke-width:60;stroke-linecap:round;stroke-linejoin:round;stroke-opacity:1" />
  <path
     d="m 15529,4516.354 h 2000"
     id="path18540"
     style="fill:#000000;fill-opacity:0;stroke:#000000;stroke-width:60;stroke-linecap:round;stroke-linejoin:round;stroke-opacity:1" />
  <path
     d="m 17529,3516.354 v 1000"
     id="path18542"
     style="fill:#000000;fill-opacity:0;stroke:#000000;stroke-width:60;stroke-linecap:round;stroke-linejoin:round;stroke-opacity:1" />
  <path
     d="m 21929,6516.354 h 600"
     id="path18544"
     style="fill:#000000;fill-opacity:0;stroke:#000000;stroke-width:60;stroke-linecap:round;stroke-linejoin:round;stroke-opacity:1" />
  <path
     d="m 17529,3516.354 1,-501"
     id="path18546"
     style="fill:#000000;fill-opacity:0;stroke:#000000;stroke-width:60;stroke-linecap:round;stroke-linejoin:round;stroke-opacity:1" />
  <path
     d="m 12529,6516.354 h 600"
     id="path18548"
     style="fill:#000000;fill-opacity:0;stroke:#000000;stroke-width:60;stroke-linecap:round;stroke-linejoin:round;stroke-opacity:1" />
  <path
     d="m 17529,8516.354 h 2000"
     id="path18550"
     style="fill:#000000;fill-opacity:0;stroke:#000000;stroke-width:60;stroke-linecap:round;stroke-linejoin:round;stroke-opacity:1" />
  <path
     d="m 17529,4516.354 v 4000"
     id="path18552"
     style="fill:#000000;fill-opacity:0;stroke:#000000;stroke-width:60;stroke-linecap:round;stroke-linejoin:round;stroke-opacity:1" />
  <path
     d="m 15529,8516.354 h 2000"
     id="path18554"
     style="fill:#000000;fill-opacity:0;stroke:#000000;stroke-width:60;stroke-linecap:round;stroke-linejoin:round;stroke-opacity:1" />
  <path
     d="m 9030,6515.354 h 1500"
     id="path18556"
     style="fill:#000000;fill-opacity:0;stroke:#000000;stroke-width:60;stroke-linecap:round;stroke-linejoin:round;stroke-opacity:1" />
  <path
     d="m 8430,4515.354 h 600"
     id="path18558"
     style="fill:#000000;fill-opacity:0;stroke:#000000;stroke-width:60;stroke-linecap:round;stroke-linejoin:round;stroke-opacity:1" />
  <path
     d="m 8430,8515.354 h 600"
     id="path18560"
     style="fill:#000000;fill-opacity:0;stroke:#000000;stroke-width:60;stroke-linecap:round;stroke-linejoin:round;stroke-opacity:1" />
  <path
     d="m 9030,6515.354 v 2000"
     id="path18562"
     style="fill:#000000;fill-opacity:0;stroke:#000000;stroke-width:60;stroke-linecap:round;stroke-linejoin:round;stroke-opacity:1" />
  <path
     d="m 9030,4515.354 v 2000"
     id="path18564"
     style="fill:#000000;fill-opacity:0;stroke:#000000;stroke-width:60;stroke-linecap:round;stroke-linejoin:round;stroke-opacity:1" />
  <path
     d="M 30,6515.354 H 2030"
     id="path18938"
     style="fill:#000000;fill-opacity:0;stroke:#000000;stroke-width:60;stroke-linecap:round;stroke-linejoin:round;stroke-opacity:1" />
  <circle
     cx="2029.9998"
     cy="6515.355"
     r="180"
     id="circle19094"
     style="fill:#000000;fill-opacity:1;stroke:#000000;stroke-width:60;stroke-linecap:round;stroke-linejoin:round;stroke-opacity:1" />
  <circle
     cx="5529.9995"
     cy="6515.355"
     r="180"
     id="circle19096"
     style="fill:#000000;fill-opacity:1;stroke:#000000;stroke-width:60;stroke-linecap:round;stroke-linejoin:round;stroke-opacity:1" />
  <circle
     cx="17529.961"
     cy="4516.769"
     r="180"
     id="circle19098"
     style="fill:#000000;fill-opacity:1;stroke:#000000;stroke-width:60;stroke-linecap:round;stroke-linejoin:round;stroke-opacity:1" />
  <circle
     cx="17529.961"
     cy="8516.7695"
     r="180"
     id="circle19100"
     style="fill:#000000;fill-opacity:1;stroke:#000000;stroke-width:60;stroke-linecap:round;stroke-linejoin:round;stroke-opacity:1" />
  <circle
     cx="9030"
     cy="6515.355"
     r="180"
     id="circle19102"
     style="fill:#000000;fill-opacity:1;stroke:#000000;stroke-width:60;stroke-linecap:round;stroke-linejoin:round;stroke-opacity:1" />
</svg>
