<?xml version="1.0" encoding="UTF-8" standalone="no"?>
<svg
   version="1.1"
   width="16.107761cm"
   height="1.631188cm"
   viewBox="0 0 63416.383 6421.9999"
   id="svg2133"
   sodipodi:docname="PLL.svg"
   inkscape:version="1.3-dev (1:1.2.0-alpha1+devel+202205170735+0b545f9528)"
   xmlns:inkscape="http://www.inkscape.org/namespaces/inkscape"
   xmlns:sodipodi="http://sodipodi.sourceforge.net/DTD/sodipodi-0.dtd"
   xmlns="http://www.w3.org/2000/svg"
   xmlns:svg="http://www.w3.org/2000/svg">
  <defs
     id="defs2133" />
  <sodipodi:namedview
     id="namedview2133"
     pagecolor="#ffffff"
     bordercolor="#000000"
     borderopacity="0.25"
     inkscape:showpageshadow="2"
     inkscape:pageopacity="0.0"
     inkscape:pagecheckerboard="0"
     inkscape:deskcolor="#d1d1d1"
     inkscape:document-units="cm"
     showgrid="false"
     inkscape:zoom="0.82834942"
     inkscape:cx="802.80131"
     inkscape:cy="270.41728"
     inkscape:window-width="2560"
     inkscape:window-height="1379"
     inkscape:window-x="0"
     inkscape:window-y="32"
     inkscape:window-maximized="1"
     inkscape:current-layer="svg2133" />
  <title
     id="title1">SVG Picture created as PLL.svg date 2022/06/06 10:38:52 </title>
  <desc
     id="desc1">Picture generated by Eeschema-SVG </desc>
  <g
     style="fill:#000000;fill-opacity:1;stroke:#000000;stroke-linecap:round;stroke-linejoin:round;stroke-opacity:1"
     id="g1"
     transform="translate(-131503.7,-84608)" />
  <g
     id="g547"
     style="fill:#000000;fill-opacity:0;stroke:#000000;stroke-width:60;stroke-linecap:round;stroke-linejoin:round;stroke-opacity:1"
     transform="translate(-131503.7,-84608)">
    <rect
       x="184055.59"
       y="86638.344"
       width="3000"
       height="3000"
       rx="0.000000"
       id="rect532" />
    <path
       d="m 184055,89038 h -1000"
       id="path532" />
    <text
       x="184255.59"
       y="89288.344"
       textLength="1464.7638"
       font-size="666.654px"
       lengthAdjust="spacingAndGlyphs"
       text-anchor="start"
       opacity="0"
       id="text532">CLK</text>
    <g
       class="stroked-text"
       id="g537">
      <desc
         id="desc532">CLK</desc>
      <path
         d="m 184690,89216 -24,24 -71,24 h -48 l -71,-24 -48,-47 -24,-48 -24,-95 v -72 l 24,-95 24,-48 48,-47 71,-24 h 48 l 71,24 24,24"
         id="path533" />
      <path
         d="m 185142,89264 h -238 v -500"
         id="path534" />
      <path
         d="m 185309,89264 v -500"
         id="path535" />
      <path
         d="m 185595,89264 -215,-286"
         id="path536" />
      <path
         d="m 185595,88764 -286,286"
         id="path537" />
    </g>
    <path
       d="m 184055,87038 h -1000"
       id="path538" />
    <text
       x="184255.59"
       y="87288.344"
       textLength="560"
       font-size="666.654px"
       lengthAdjust="spacingAndGlyphs"
       text-anchor="start"
       opacity="0"
       id="text538">D</text>
    <g
       class="stroked-text"
       id="g539">
      <desc
         id="desc538">D</desc>
      <path
         d="m 184404,87264 v -500 h 119 l 72,24 47,47 24,48 24,95 v 72 l -24,95 -24,48 -47,47 -72,24 h -119"
         id="path539" />
    </g>
    <path
       d="m 187055,87038 h 1000"
       id="path540" />
    <text
       x="186855.59"
       y="87288.344"
       textLength="583.81891"
       font-size="666.654px"
       lengthAdjust="spacingAndGlyphs"
       text-anchor="end"
       opacity="0"
       id="text540">Q</text>
    <g
       class="stroked-text"
       id="g542">
      <desc
         id="desc540">Q</desc>
      <path
         d="m 186754,87312 -48,-24 -48,-48 -71,-71 -48,-24 h -47"
         id="path541" />
      <path
         d="m 186516,87264 -48,-24 -48,-47 -23,-96 v -166 l 23,-96 48,-47 48,-24 h 95 l 47,24 48,47 24,96 v 166 l -24,96 -48,47 -47,24 h -95"
         id="path542" />
    </g>
    <path
       d="m 187055,89038 h 1000"
       id="path543" />
    <text
       x="186855.59"
       y="89288.344"
       textLength="583.81891"
       font-size="666.654px"
       lengthAdjust="spacingAndGlyphs"
       text-anchor="end"
       opacity="0"
       id="text543">~{Q}</text>
    <g
       class="stroked-text"
       id="g546">
      <desc
         id="desc543">~{Q}</desc>
      <path
         d="m 186301,88623 h 524"
         id="path544" />
      <path
         d="m 186754,89312 -48,-24 -48,-48 -71,-71 -48,-24 h -47"
         id="path545" />
      <path
         d="m 186516,89264 -48,-24 -48,-47 -23,-96 v -166 l 23,-96 48,-47 48,-24 h 95 l 47,24 48,47 24,96 v 166 l -24,96 -48,47 -47,24 h -95"
         id="path546" />
    </g>
  </g>
  <g
     id="g637"
     style="fill:#000000;fill-opacity:0;stroke:#000000;stroke-width:60;stroke-linecap:round;stroke-linejoin:round;stroke-opacity:1"
     transform="translate(-131503.7,-84608)">
    <rect
       x="175055.59"
       y="86638.344"
       width="3000"
       height="3000"
       rx="0.000000"
       id="rect622" />
    <path
       d="m 175055,89038 h -1000"
       id="path622" />
    <text
       x="175255.59"
       y="89288.344"
       textLength="1464.7638"
       font-size="666.654px"
       lengthAdjust="spacingAndGlyphs"
       text-anchor="start"
       opacity="0"
       id="text622">CLK</text>
    <g
       class="stroked-text"
       id="g627">
      <desc
         id="desc622">CLK</desc>
      <path
         d="m 175690,89216 -24,24 -71,24 h -48 l -71,-24 -48,-47 -24,-48 -24,-95 v -72 l 24,-95 24,-48 48,-47 71,-24 h 48 l 71,24 24,24"
         id="path623" />
      <path
         d="m 176142,89264 h -238 v -500"
         id="path624" />
      <path
         d="m 176309,89264 v -500"
         id="path625" />
      <path
         d="m 176595,89264 -215,-286"
         id="path626" />
      <path
         d="m 176595,88764 -286,286"
         id="path627" />
    </g>
    <path
       d="m 175055,87038 h -1000"
       id="path628" />
    <text
       x="175255.59"
       y="87288.344"
       textLength="560"
       font-size="666.654px"
       lengthAdjust="spacingAndGlyphs"
       text-anchor="start"
       opacity="0"
       id="text628">D</text>
    <g
       class="stroked-text"
       id="g629">
      <desc
         id="desc628">D</desc>
      <path
         d="m 175404,87264 v -500 h 119 l 72,24 47,47 24,48 24,95 v 72 l -24,95 -24,48 -47,47 -72,24 h -119"
         id="path629" />
    </g>
    <path
       d="m 178055,87038 h 1000"
       id="path630" />
    <text
       x="177855.59"
       y="87288.344"
       textLength="583.81891"
       font-size="666.654px"
       lengthAdjust="spacingAndGlyphs"
       text-anchor="end"
       opacity="0"
       id="text630">Q</text>
    <g
       class="stroked-text"
       id="g632">
      <desc
         id="desc630">Q</desc>
      <path
         d="m 177754,87312 -48,-24 -48,-48 -71,-71 -48,-24 h -47"
         id="path631" />
      <path
         d="m 177516,87264 -48,-24 -48,-47 -23,-96 v -166 l 23,-96 48,-47 48,-24 h 95 l 47,24 48,47 24,96 v 166 l -24,96 -48,47 -47,24 h -95"
         id="path632" />
    </g>
    <path
       d="m 178055,89038 h 1000"
       id="path633" />
    <text
       x="177855.59"
       y="89288.344"
       textLength="583.81891"
       font-size="666.654px"
       lengthAdjust="spacingAndGlyphs"
       text-anchor="end"
       opacity="0"
       id="text633">~{Q}</text>
    <g
       class="stroked-text"
       id="g636">
      <desc
         id="desc633">~{Q}</desc>
      <path
         d="m 177301,88623 h 524"
         id="path634" />
      <path
         d="m 177754,89312 -48,-24 -48,-48 -71,-71 -48,-24 h -47"
         id="path635" />
      <path
         d="m 177516,89264 -48,-24 -48,-47 -23,-96 v -166 l 23,-96 48,-47 48,-24 h 95 l 47,24 48,47 24,96 v 166 l -24,96 -48,47 -47,24 h -95"
         id="path636" />
    </g>
  </g>
  <g
     id="g683"
     style="fill:#000000;fill-opacity:0;stroke:#000000;stroke-width:60;stroke-linecap:round;stroke-linejoin:round;stroke-opacity:1"
     transform="translate(-131503.7,-84608)">
    <rect
       x="166055.59"
       y="86638.344"
       width="3000"
       height="3000"
       rx="0.000000"
       id="rect668" />
    <path
       d="m 166055,89038 h -1000"
       id="path668" />
    <text
       x="166255.59"
       y="89288.344"
       textLength="1464.7638"
       font-size="666.654px"
       lengthAdjust="spacingAndGlyphs"
       text-anchor="start"
       opacity="0"
       id="text668">CLK</text>
    <g
       class="stroked-text"
       id="g673">
      <desc
         id="desc668">CLK</desc>
      <path
         d="m 166690,89216 -24,24 -71,24 h -48 l -71,-24 -48,-47 -24,-48 -24,-95 v -72 l 24,-95 24,-48 48,-47 71,-24 h 48 l 71,24 24,24"
         id="path669" />
      <path
         d="m 167142,89264 h -238 v -500"
         id="path670" />
      <path
         d="m 167309,89264 v -500"
         id="path671" />
      <path
         d="m 167595,89264 -215,-286"
         id="path672" />
      <path
         d="m 167595,88764 -286,286"
         id="path673" />
    </g>
    <path
       d="m 166055,87038 h -1000"
       id="path674" />
    <text
       x="166255.59"
       y="87288.344"
       textLength="560"
       font-size="666.654px"
       lengthAdjust="spacingAndGlyphs"
       text-anchor="start"
       opacity="0"
       id="text674">D</text>
    <g
       class="stroked-text"
       id="g675">
      <desc
         id="desc674">D</desc>
      <path
         d="m 166404,87264 v -500 h 119 l 72,24 47,47 24,48 24,95 v 72 l -24,95 -24,48 -47,47 -72,24 h -119"
         id="path675" />
    </g>
    <path
       d="m 169055,87038 h 1000"
       id="path676" />
    <text
       x="168855.59"
       y="87288.344"
       textLength="583.81891"
       font-size="666.654px"
       lengthAdjust="spacingAndGlyphs"
       text-anchor="end"
       opacity="0"
       id="text676">Q</text>
    <g
       class="stroked-text"
       id="g678">
      <desc
         id="desc676">Q</desc>
      <path
         d="m 168754,87312 -48,-24 -48,-48 -71,-71 -48,-24 h -47"
         id="path677" />
      <path
         d="m 168516,87264 -48,-24 -48,-47 -23,-96 v -166 l 23,-96 48,-47 48,-24 h 95 l 47,24 48,47 24,96 v 166 l -24,96 -48,47 -47,24 h -95"
         id="path678" />
    </g>
    <path
       d="m 169055,89038 h 1000"
       id="path679" />
    <text
       x="168855.59"
       y="89288.344"
       textLength="583.81891"
       font-size="666.654px"
       lengthAdjust="spacingAndGlyphs"
       text-anchor="end"
       opacity="0"
       id="text679">~{Q}</text>
    <g
       class="stroked-text"
       id="g682">
      <desc
         id="desc679">~{Q}</desc>
      <path
         d="m 168301,88623 h 524"
         id="path680" />
      <path
         d="m 168754,89312 -48,-24 -48,-48 -71,-71 -48,-24 h -47"
         id="path681" />
      <path
         d="m 168516,89264 -48,-24 -48,-47 -23,-96 v -166 l 23,-96 48,-47 48,-24 h 95 l 47,24 48,47 24,96 v 166 l -24,96 -48,47 -47,24 h -95"
         id="path682" />
    </g>
  </g>
  <g
     id="g873"
     style="fill:#000000;fill-opacity:0;stroke:#000000;stroke-width:60;stroke-linecap:round;stroke-linejoin:round;stroke-opacity:1"
     transform="translate(-131503.7,-84608)">
    <rect
       x="157055.59"
       y="86638.344"
       width="3000"
       height="3000"
       rx="0.000000"
       id="rect858" />
    <path
       d="m 157055,89038 h -1000"
       id="path858" />
    <text
       x="157255.59"
       y="89288.344"
       textLength="1464.7638"
       font-size="666.654px"
       lengthAdjust="spacingAndGlyphs"
       text-anchor="start"
       opacity="0"
       id="text858">CLK</text>
    <g
       class="stroked-text"
       id="g863">
      <desc
         id="desc858">CLK</desc>
      <path
         d="m 157690,89216 -24,24 -71,24 h -48 l -71,-24 -48,-47 -24,-48 -24,-95 v -72 l 24,-95 24,-48 48,-47 71,-24 h 48 l 71,24 24,24"
         id="path859" />
      <path
         d="m 158142,89264 h -238 v -500"
         id="path860" />
      <path
         d="m 158309,89264 v -500"
         id="path861" />
      <path
         d="m 158595,89264 -215,-286"
         id="path862" />
      <path
         d="m 158595,88764 -286,286"
         id="path863" />
    </g>
    <path
       d="m 157055,87038 h -1000"
       id="path864" />
    <text
       x="157255.59"
       y="87288.344"
       textLength="560"
       font-size="666.654px"
       lengthAdjust="spacingAndGlyphs"
       text-anchor="start"
       opacity="0"
       id="text864">D</text>
    <g
       class="stroked-text"
       id="g865">
      <desc
         id="desc864">D</desc>
      <path
         d="m 157404,87264 v -500 h 119 l 72,24 47,47 24,48 24,95 v 72 l -24,95 -24,48 -47,47 -72,24 h -119"
         id="path865" />
    </g>
    <path
       d="m 160055,87038 h 1000"
       id="path866" />
    <text
       x="159855.59"
       y="87288.344"
       textLength="583.81891"
       font-size="666.654px"
       lengthAdjust="spacingAndGlyphs"
       text-anchor="end"
       opacity="0"
       id="text866">Q</text>
    <g
       class="stroked-text"
       id="g868">
      <desc
         id="desc866">Q</desc>
      <path
         d="m 159754,87312 -48,-24 -48,-48 -71,-71 -48,-24 h -47"
         id="path867" />
      <path
         d="m 159516,87264 -48,-24 -48,-47 -23,-96 v -166 l 23,-96 48,-47 48,-24 h 95 l 47,24 48,47 24,96 v 166 l -24,96 -48,47 -47,24 h -95"
         id="path868" />
    </g>
    <path
       d="m 160055,89038 h 1000"
       id="path869" />
    <text
       x="159855.59"
       y="89288.344"
       textLength="583.81891"
       font-size="666.654px"
       lengthAdjust="spacingAndGlyphs"
       text-anchor="end"
       opacity="0"
       id="text869">~{Q}</text>
    <g
       class="stroked-text"
       id="g872">
      <desc
         id="desc869">~{Q}</desc>
      <path
         d="m 159301,88623 h 524"
         id="path870" />
      <path
         d="m 159754,89312 -48,-24 -48,-48 -71,-71 -48,-24 h -47"
         id="path871" />
      <path
         d="m 159516,89264 -48,-24 -48,-47 -23,-96 v -166 l 23,-96 48,-47 48,-24 h 95 l 47,24 48,47 24,96 v 166 l -24,96 -48,47 -47,24 h -95"
         id="path872" />
    </g>
  </g>
  <g
     id="g875"
     style="fill:#000000;fill-opacity:0;stroke:#000000;stroke-width:60;stroke-linecap:round;stroke-linejoin:round;stroke-opacity:1"
     transform="translate(-131503.7,-84608)">
    <rect
       x="149000"
       y="87000"
       width="4000"
       height="4000"
       rx="0.000000"
       id="rect874" />
  </g>
  <g
     style="fill:#000000;fill-opacity:0;stroke:#000000;stroke-width:62.5197;stroke-linecap:round;stroke-linejoin:round;stroke-opacity:1"
     id="g882"
     transform="translate(-131503.7,-84608)">
    <text
       x="151000"
       y="89950.039"
       textLength="1060"
       font-size="666.654px"
       lengthAdjust="spacingAndGlyphs"
       text-anchor="middle"
       opacity="0"
       id="text875">/2</text>
    <g
       class="stroked-text"
       id="g876">
      <desc
         id="desc875">/2</desc>
      <path
         d="m 150976,89402 -429,643"
         id="path875" />
      <path
         d="m 151119,89473 23,-23 48,-24 h 119 l 48,24 23,23 24,48 v 48 l -24,71 -285,286 h 309"
         id="path876" />
    </g>
    <text
       x="151100"
       y="88850.039"
       textLength="1919.6456"
       font-size="666.654px"
       lengthAdjust="spacingAndGlyphs"
       text-anchor="middle"
       opacity="0"
       id="text876">TSPC</text>
    <g
       class="stroked-text"
       id="g881">
      <desc
         id="desc876">TSPC</desc>
      <path
         d="m 150219,88326 h 285"
         id="path877" />
      <path
         d="m 150361,88826 v -500"
         id="path878" />
      <path
         d="m 150647,88802 72,24 h 119 l 47,-24 24,-24 24,-48 v -47 l -24,-48 -24,-24 -47,-23 -96,-24 -47,-24 -24,-24 -24,-47 v -48 l 24,-48 24,-23 47,-24 h 119 l 72,24"
         id="path879" />
      <path
         d="m 151147,88826 v -500 h 191 l 47,24 24,23 24,48 v 71 l -24,48 -24,24 -47,24 h -191"
         id="path880" />
      <path
         d="m 151933,88778 -24,24 -71,24 h -48 l -71,-24 -48,-48 -24,-47 -24,-96 v -71 l 24,-95 24,-48 48,-47 71,-24 h 48 l 71,24 24,23"
         id="path881" />
    </g>
  </g>
  <g
     style="fill:#000000;fill-opacity:0;stroke:#000000;stroke-width:60;stroke-linecap:round;stroke-linejoin:round;stroke-opacity:1"
     id="g883"
     transform="translate(-131503.7,-84608)">
    <path
       d="m 149000,89000 h -1000"
       id="path882" />
    <path
       d="m 153000,89000 h 1000"
       id="path883" />
  </g>
  <g
     id="g885"
     style="fill:#000000;fill-opacity:0;stroke:#000000;stroke-width:60;stroke-linecap:round;stroke-linejoin:round;stroke-opacity:1"
     transform="translate(-131503.7,-84608)">
    <rect
       x="143000"
       y="87000"
       width="4000"
       height="4000"
       rx="0.000000"
       id="rect884" />
  </g>
  <g
     style="fill:#000000;fill-opacity:0;stroke:#000000;stroke-width:62.5197;stroke-linecap:round;stroke-linejoin:round;stroke-opacity:1"
     id="g892"
     transform="translate(-131503.7,-84608)">
    <text
       x="145000"
       y="89950.039"
       textLength="1062.5197"
       font-size="666.654px"
       lengthAdjust="spacingAndGlyphs"
       text-anchor="middle"
       opacity="0"
       id="text885">/2</text>
    <g
       class="stroked-text"
       id="g886">
      <desc
         id="desc885">/2</desc>
      <path
         d="m 144976,89402 -429,643"
         id="path885" />
      <path
         d="m 145119,89473 23,-23 48,-24 h 119 l 48,24 23,23 24,48 v 48 l -24,71 -285,286 h 309"
         id="path886" />
    </g>
    <text
       x="145100"
       y="88850.039"
       textLength="1919.6456"
       font-size="666.654px"
       lengthAdjust="spacingAndGlyphs"
       text-anchor="middle"
       opacity="0"
       id="text886">TSPC</text>
    <g
       class="stroked-text"
       id="g891">
      <desc
         id="desc886">TSPC</desc>
      <path
         d="m 144219,88326 h 285"
         id="path887" />
      <path
         d="m 144361,88826 v -500"
         id="path888" />
      <path
         d="m 144647,88802 72,24 h 119 l 47,-24 24,-24 24,-48 v -47 l -24,-48 -24,-24 -47,-23 -96,-24 -47,-24 -24,-24 -24,-47 v -48 l 24,-48 24,-23 47,-24 h 119 l 72,24"
         id="path889" />
      <path
         d="m 145147,88826 v -500 h 191 l 47,24 24,23 24,48 v 71 l -24,48 -24,24 -47,24 h -191"
         id="path890" />
      <path
         d="m 145933,88778 -24,24 -71,24 h -48 l -71,-24 -48,-48 -24,-47 -24,-96 v -71 l 24,-95 24,-48 48,-47 71,-24 h 48 l 71,24 24,23"
         id="path891" />
    </g>
  </g>
  <g
     style="fill:#000000;fill-opacity:0;stroke:#000000;stroke-width:60;stroke-linecap:round;stroke-linejoin:round;stroke-opacity:1"
     id="g893"
     transform="translate(-131503.7,-84608)">
    <path
       d="m 143000,89000 h -1000"
       id="path892" />
    <path
       d="m 147000,89000 h 1000"
       id="path893" />
  </g>
  <g
     id="g957"
     style="fill:#000000;fill-opacity:0;stroke:#000000;stroke-width:60;stroke-linecap:round;stroke-linejoin:round;stroke-opacity:1"
     transform="translate(-131503.7,-84608)">
    <rect
       x="137000"
       y="87000"
       width="4000"
       height="4000"
       rx="0.000000"
       id="rect956" />
  </g>
  <g
     style="fill:#000000;fill-opacity:0;stroke:#000000;stroke-width:62.5197;stroke-linecap:round;stroke-linejoin:round;stroke-opacity:1"
     id="g964"
     transform="translate(-131503.7,-84608)">
    <text
       x="139000"
       y="89950.039"
       textLength="1060"
       font-size="666.654px"
       lengthAdjust="spacingAndGlyphs"
       text-anchor="middle"
       opacity="0"
       id="text957">/2</text>
    <g
       class="stroked-text"
       id="g958">
      <desc
         id="desc957">/2</desc>
      <path
         d="m 138976,89402 -429,643"
         id="path957" />
      <path
         d="m 139119,89473 23,-23 48,-24 h 119 l 48,24 23,23 24,48 v 48 l -24,71 -285,286 h 309"
         id="path958" />
    </g>
    <text
       x="139100"
       y="88850.039"
       textLength="1919.6456"
       font-size="666.654px"
       lengthAdjust="spacingAndGlyphs"
       text-anchor="middle"
       opacity="0"
       id="text958">TSPC</text>
    <g
       class="stroked-text"
       id="g963">
      <desc
         id="desc958">TSPC</desc>
      <path
         d="m 138219,88326 h 285"
         id="path959" />
      <path
         d="m 138361,88826 v -500"
         id="path960" />
      <path
         d="m 138647,88802 72,24 h 119 l 47,-24 24,-24 24,-48 v -47 l -24,-48 -24,-24 -47,-23 -96,-24 -47,-24 -24,-24 -24,-47 v -48 l 24,-48 24,-23 47,-24 h 119 l 72,24"
         id="path961" />
      <path
         d="m 139147,88826 v -500 h 191 l 47,24 24,23 24,48 v 71 l -24,48 -24,24 -47,24 h -191"
         id="path962" />
      <path
         d="m 139933,88778 -24,24 -71,24 h -48 l -71,-24 -48,-48 -24,-47 -24,-96 v -71 l 24,-95 24,-48 48,-47 71,-24 h 48 l 71,24 24,23"
         id="path963" />
    </g>
  </g>
  <g
     style="fill:#000000;fill-opacity:0;stroke:#000000;stroke-width:60;stroke-linecap:round;stroke-linejoin:round;stroke-opacity:1"
     id="g965"
     transform="translate(-131503.7,-84608)">
    <path
       d="m 137000,89000 h -1000"
       id="path964" />
    <path
       d="m 141000,89000 h 1000"
       id="path965" />
  </g>
  <g
     style="fill:#000000;fill-opacity:0;stroke:#000000;stroke-width:62.5197;stroke-linecap:round;stroke-linejoin:round;stroke-opacity:1"
     id="g1341"
     transform="translate(-131503.7,-84608)" />
  <g
     style="fill:#000000;fill-opacity:0;stroke:#000000;stroke-width:62.5197;stroke-linecap:round;stroke-linejoin:round;stroke-opacity:1"
     id="g1350"
     transform="translate(-131503.7,-84608)" />
  <g
     style="fill:#000000;fill-opacity:0;stroke:#000000;stroke-width:62.5197;stroke-linecap:round;stroke-linejoin:round;stroke-opacity:1"
     id="g1359"
     transform="translate(-131503.7,-84608)" />
  <g
     style="fill:#000000;fill-opacity:0;stroke:#000000;stroke-width:62.5197;stroke-linecap:round;stroke-linejoin:round;stroke-opacity:1"
     id="g1366"
     transform="translate(-131503.7,-84608)" />
  <text
     x="191187.52"
     y="87385.75"
     textLength="3014.8818"
     font-size="666.654px"
     lengthAdjust="spacingAndGlyphs"
     text-anchor="start"
     opacity="0"
     id="text1366"
     style="fill:#000000;fill-opacity:0;stroke:#000000;stroke-width:60;stroke-linecap:round;stroke-linejoin:round;stroke-opacity:1"
     transform="translate(-131503.7,-84608)">CLK_DIV</text>
  <g
     class="stroked-text"
     id="g1374"
     style="fill:#000000;fill-opacity:0;stroke:#000000;stroke-width:60;stroke-linecap:round;stroke-linejoin:round;stroke-opacity:1"
     transform="translate(-131503.7,-84608)">
    <desc
       id="desc1366">CLK_DIV</desc>
    <path
       d="m 191622,87314 -24,24 -71,23 h -48 l -72,-23 -47,-48 -24,-48 -24,-95 v -71 l 24,-96 24,-47 47,-48 72,-24 h 48 l 71,24 24,24"
       id="path1366" />
    <path
       d="m 192074,87361 h -238 v -500"
       id="path1367" />
    <path
       d="m 192241,87361 v -500"
       id="path1368" />
    <path
       d="m 192527,87361 -215,-285"
       id="path1369" />
    <path
       d="m 192527,86861 -286,286"
       id="path1370" />
    <path
       d="m 192622,87409 h 381"
       id="path1371" />
    <path
       d="m 193122,87361 v -500 h 119 l 71,24 48,48 24,47 23,96 v 71 l -23,95 -24,48 -48,48 -71,23 h -119"
       id="path1372" />
    <path
       d="m 193622,87361 v -500"
       id="path1373" />
    <path
       d="m 193788,86861 167,500 167,-500"
       id="path1374" />
  </g>
  <path
     style="fill:none;fill-opacity:0;stroke:#000000;stroke-width:60;stroke-linecap:round;stroke-linejoin:round;stroke-opacity:1"
     d="m 59496.3,2492 v 500.157 h 3452.56 L 63386.38,2492 62948.86,1991.843 H 59496.3 Z"
     id="path1375" />
  <g
     style="fill:#000000;fill-opacity:0;stroke:#000000;stroke-width:62.5197;stroke-linecap:round;stroke-linejoin:round;stroke-opacity:1"
     id="g1376"
     transform="translate(-131503.7,-84608)" />
  <g
     style="fill:#000000;fill-opacity:0;stroke:#000000;stroke-width:62.5197;stroke-linecap:round;stroke-linejoin:round;stroke-opacity:1"
     id="g1381"
     transform="translate(-131503.7,-84608)" />
  <g
     style="fill:#000000;fill-opacity:0;stroke:#000000;stroke-width:62.5197;stroke-linecap:round;stroke-linejoin:round;stroke-opacity:1"
     id="g1387"
     transform="translate(-131503.7,-84608)" />
  <g
     style="fill:#000000;fill-opacity:0;stroke:#000000;stroke-width:62.5197;stroke-linecap:round;stroke-linejoin:round;stroke-opacity:1"
     id="g1396"
     transform="translate(-131503.7,-84608)" />
  <g
     style="fill:#000000;fill-opacity:0;stroke:#000000;stroke-width:62.5197;stroke-linecap:round;stroke-linejoin:round;stroke-opacity:1"
     id="g1404"
     transform="translate(-131503.7,-84608)" />
  <g
     style="fill:#000000;fill-opacity:0;stroke:#000000;stroke-width:62.5197;stroke-linecap:round;stroke-linejoin:round;stroke-opacity:1"
     id="g1412"
     transform="translate(-131503.7,-84608)" />
  <g
     style="fill:#000000;fill-opacity:0;stroke:#000000;stroke-width:62.5197;stroke-linecap:round;stroke-linejoin:round;stroke-opacity:1"
     id="g1420"
     transform="translate(-131503.7,-84608)" />
  <g
     style="fill:#000000;fill-opacity:0;stroke:#000000;stroke-width:62.5197;stroke-linecap:round;stroke-linejoin:round;stroke-opacity:1"
     id="g1423"
     transform="translate(-131503.7,-84608)" />
  <g
     style="fill:#000000;fill-opacity:0;stroke:#000000;stroke-width:62.5197;stroke-linecap:round;stroke-linejoin:round;stroke-opacity:1"
     id="g1431"
     transform="translate(-131503.7,-84608)" />
  <g
     style="fill:#000000;fill-opacity:0;stroke:#000000;stroke-width:62.5197;stroke-linecap:round;stroke-linejoin:round;stroke-opacity:1"
     id="g1438"
     transform="translate(-131503.7,-84608)" />
  <g
     style="fill:#000000;fill-opacity:0;stroke:#000000;stroke-width:62.5197;stroke-linecap:round;stroke-linejoin:round;stroke-opacity:1"
     id="g1445"
     transform="translate(-131503.7,-84608)" />
  <g
     style="fill:#000000;fill-opacity:0;stroke:#000000;stroke-width:62.5197;stroke-linecap:round;stroke-linejoin:round;stroke-opacity:1"
     id="g1453"
     transform="translate(-131503.7,-84608)" />
  <text
     x="133337.48"
     y="89285.75"
     textLength="1491.1024"
     font-size="666.654px"
     lengthAdjust="spacingAndGlyphs"
     text-anchor="end"
     opacity="0"
     id="text1453"
     style="fill:#000000;fill-opacity:0;stroke:#000000;stroke-width:60;stroke-linecap:round;stroke-linejoin:round;stroke-opacity:1"
     transform="translate(-131503.7,-84608)">OUT</text>
  <g
     class="stroked-text"
     id="g1456"
     style="fill:#000000;fill-opacity:0;stroke:#000000;stroke-width:60;stroke-linecap:round;stroke-linejoin:round;stroke-opacity:1"
     transform="translate(-131503.7,-84608)">
    <desc
       id="desc1453">OUT</desc>
    <path
       d="m 132093,88761 h 95 l 48,24 47,48 24,95 v 167 l -24,95 -47,48 -48,23 h -95 l -48,-23 -48,-48 -23,-95 v -167 l 23,-95 48,-48 48,-24"
       id="path1453" />
    <path
       d="m 132521,88761 v 405 l 24,48 24,24 47,23 h 96 l 47,-23 24,-24 24,-48 v -405"
       id="path1454" />
    <path
       d="m 132974,88761 h 285"
       id="path1455" />
    <path
       d="m 133116,89261 v -500"
       id="path1456" />
  </g>
  <path
     style="fill:none;fill-opacity:0;stroke:#000000;stroke-width:60;stroke-linecap:round;stroke-linejoin:round;stroke-opacity:1"
     d="M 2396.3,4392 1958.78,3891.843 H 30 V 4392 4892.157 h 1928.78 z"
     id="path1457" />
  <g
     style="fill:#000000;fill-opacity:0;stroke:#000000;stroke-width:62.5197;stroke-linecap:round;stroke-linejoin:round;stroke-opacity:1"
     id="g1458"
     transform="translate(-131503.7,-84608)" />
  <g
     style="fill:#000000;fill-opacity:0;stroke:#000000;stroke-width:62.5197;stroke-linecap:round;stroke-linejoin:round;stroke-opacity:1"
     id="g1467"
     transform="translate(-131503.7,-84608)" />
  <g
     style="fill:#000000;fill-opacity:0;stroke:#000000;stroke-width:62.5197;stroke-linecap:round;stroke-linejoin:round;stroke-opacity:1"
     id="g1472"
     transform="translate(-131503.7,-84608)" />
  <g
     style="fill:#000000;fill-opacity:0;stroke:#000000;stroke-width:62.5197;stroke-linecap:round;stroke-linejoin:round;stroke-opacity:1"
     id="g1484"
     transform="translate(-131503.7,-84608)" />
  <g
     style="fill:#000000;fill-opacity:0;stroke:#000000;stroke-width:62.5197;stroke-linecap:round;stroke-linejoin:round;stroke-opacity:1"
     id="g1489"
     transform="translate(-131503.7,-84608)" />
  <g
     style="fill:#000000;fill-opacity:0;stroke:#000000;stroke-width:62.5197;stroke-linecap:round;stroke-linejoin:round;stroke-opacity:1"
     id="g1494"
     transform="translate(-131503.7,-84608)" />
  <g
     style="fill:#000000;fill-opacity:0;stroke:#000000;stroke-width:62.5197;stroke-linecap:round;stroke-linejoin:round;stroke-opacity:1"
     id="g1506"
     transform="translate(-131503.7,-84608)" />
  <g
     style="fill:#000000;fill-opacity:0;stroke:#000000;stroke-width:62.5197;stroke-linecap:round;stroke-linejoin:round;stroke-opacity:1"
     id="g1518"
     transform="translate(-131503.7,-84608)" />
  <g
     style="fill:#000000;fill-opacity:0;stroke:#000000;stroke-width:62.5197;stroke-linecap:round;stroke-linejoin:round;stroke-opacity:1"
     id="g1523"
     transform="translate(-131503.7,-84608)" />
  <g
     style="fill:#000000;fill-opacity:0;stroke:#000000;stroke-width:62.5197;stroke-linecap:round;stroke-linejoin:round;stroke-opacity:1"
     id="g1528"
     transform="translate(-131503.7,-84608)" />
  <g
     style="fill:#000000;fill-opacity:0;stroke:#000000;stroke-width:62.5197;stroke-linecap:round;stroke-linejoin:round;stroke-opacity:1"
     id="g1534"
     transform="translate(-131503.7,-84608)" />
  <g
     style="fill:#000000;fill-opacity:0;stroke:#000000;stroke-width:62.5197;stroke-linecap:round;stroke-linejoin:round;stroke-opacity:1"
     id="g1546"
     transform="translate(-131503.7,-84608)" />
  <g
     style="fill:#000000;fill-opacity:0;stroke:#000000;stroke-width:62.5197;stroke-linecap:round;stroke-linejoin:round;stroke-opacity:1"
     id="g1551"
     transform="translate(-131503.7,-84608)" />
  <g
     style="fill:#000000;fill-opacity:0;stroke:#000000;stroke-width:62.5197;stroke-linecap:round;stroke-linejoin:round;stroke-opacity:1"
     id="g1563"
     transform="translate(-131503.7,-84608)" />
  <g
     style="fill:#000000;fill-opacity:0;stroke:#000000;stroke-width:62.5197;stroke-linecap:round;stroke-linejoin:round;stroke-opacity:1"
     id="g1568"
     transform="translate(-131503.7,-84608)" />
  <g
     style="fill:#000000;fill-opacity:0;stroke:#000000;stroke-width:62.5197;stroke-linecap:round;stroke-linejoin:round;stroke-opacity:1"
     id="g1575"
     transform="translate(-131503.7,-84608)" />
  <g
     style="fill:#000000;fill-opacity:0;stroke:#000000;stroke-width:62.5197;stroke-linecap:round;stroke-linejoin:round;stroke-opacity:1"
     id="g1582"
     transform="translate(-131503.7,-84608)" />
  <g
     style="fill:#000000;fill-opacity:0;stroke:#000000;stroke-width:62.5197;stroke-linecap:round;stroke-linejoin:round;stroke-opacity:1"
     id="g1587"
     transform="translate(-131503.7,-84608)" />
  <g
     style="fill:#000000;fill-opacity:0;stroke:#000000;stroke-width:62.5197;stroke-linecap:round;stroke-linejoin:round;stroke-opacity:1"
     id="g1593"
     transform="translate(-131503.7,-84608)" />
  <g
     style="fill:#000000;fill-opacity:0;stroke:#000000;stroke-width:62.5197;stroke-linecap:round;stroke-linejoin:round;stroke-opacity:1"
     id="g1614"
     transform="translate(-131503.7,-84608)" />
  <g
     style="fill:#000000;fill-opacity:0;stroke:#000000;stroke-width:62.5197;stroke-linecap:round;stroke-linejoin:round;stroke-opacity:1"
     id="g1618"
     transform="translate(-131503.7,-84608)" />
  <g
     style="fill:#000000;fill-opacity:0;stroke:#000000;stroke-width:62.5197;stroke-linecap:round;stroke-linejoin:round;stroke-opacity:1"
     id="g1644"
     transform="translate(-131503.7,-84608)" />
  <g
     style="fill:#000000;fill-opacity:0;stroke:#000000;stroke-width:60;stroke-linecap:round;stroke-linejoin:round;stroke-opacity:1"
     id="g1768"
     transform="translate(-131503.7,-84608)" />
  <g
     style="fill:#000000;fill-opacity:0;stroke:#000000;stroke-width:60;stroke-linecap:round;stroke-linejoin:round;stroke-opacity:1"
     id="g1770"
     transform="translate(-131503.7,-84608)" />
  <g
     style="fill:#000000;fill-opacity:0;stroke:#000000;stroke-width:60;stroke-linecap:round;stroke-linejoin:round;stroke-opacity:1"
     id="g1772"
     transform="translate(-131503.7,-84608)" />
  <g
     style="fill:#000000;fill-opacity:0;stroke:#000000;stroke-width:60;stroke-linecap:round;stroke-linejoin:round;stroke-opacity:1"
     id="g1774"
     transform="translate(-131503.7,-84608)" />
  <g
     style="fill:#000000;fill-opacity:0;stroke:#000000;stroke-width:60;stroke-linecap:round;stroke-linejoin:round;stroke-opacity:1"
     id="g1776"
     transform="translate(-131503.7,-84608)" />
  <g
     style="fill:#000000;fill-opacity:0;stroke:#000000;stroke-width:60;stroke-linecap:round;stroke-linejoin:round;stroke-opacity:1"
     id="g1778"
     transform="translate(-131503.7,-84608)" />
  <g
     style="fill:#000000;fill-opacity:0;stroke:#000000;stroke-width:60;stroke-linecap:round;stroke-linejoin:round;stroke-opacity:1"
     id="g1780"
     transform="translate(-131503.7,-84608)" />
  <g
     style="fill:#000000;fill-opacity:0;stroke:#000000;stroke-width:60;stroke-linecap:round;stroke-linejoin:round;stroke-opacity:1"
     id="g1782"
     transform="translate(-131503.7,-84608)" />
  <g
     style="fill:#000000;fill-opacity:0;stroke:#000000;stroke-width:60;stroke-linecap:round;stroke-linejoin:round;stroke-opacity:1"
     id="g1784"
     transform="translate(-131503.7,-84608)" />
  <g
     style="fill:#000000;fill-opacity:0;stroke:#000000;stroke-width:60;stroke-linecap:round;stroke-linejoin:round;stroke-opacity:1"
     id="g1786"
     transform="translate(-131503.7,-84608)" />
  <g
     style="fill:#000000;fill-opacity:0;stroke:#000000;stroke-width:60;stroke-linecap:round;stroke-linejoin:round;stroke-opacity:1"
     id="g1788"
     transform="translate(-131503.7,-84608)" />
  <path
     d="m 57551.3,30 h -7000"
     id="path2001"
     style="fill:#000000;fill-opacity:0;stroke:#000000;stroke-width:60;stroke-linecap:round;stroke-linejoin:round;stroke-opacity:1" />
  <path
     d="m 56551.3,2430 2945,62"
     id="path2002"
     style="fill:#000000;fill-opacity:0;stroke:#000000;stroke-width:60;stroke-linecap:round;stroke-linejoin:round;stroke-opacity:1" />
  <path
     d="M 57551.3,4430 V 30"
     id="path2003"
     style="fill:#000000;fill-opacity:0;stroke:#000000;stroke-width:60;stroke-linecap:round;stroke-linejoin:round;stroke-opacity:1" />
  <path
     d="m 56551.3,4430 h 1000"
     id="path2004"
     style="fill:#000000;fill-opacity:0;stroke:#000000;stroke-width:60;stroke-linecap:round;stroke-linejoin:round;stroke-opacity:1" />
  <path
     d="m 40551.3,2430 2000,2000"
     id="path2006"
     style="fill:#000000;fill-opacity:0;stroke:#000000;stroke-width:60;stroke-linecap:round;stroke-linejoin:round;stroke-opacity:1" />
  <path
     d="M 39551.3,4430 V 30"
     id="path2007"
     style="fill:#000000;fill-opacity:0;stroke:#000000;stroke-width:60;stroke-linecap:round;stroke-linejoin:round;stroke-opacity:1" />
  <path
     d="m 38551.3,4430 h 1000"
     id="path2008"
     style="fill:#000000;fill-opacity:0;stroke:#000000;stroke-width:60;stroke-linecap:round;stroke-linejoin:round;stroke-opacity:1" />
  <path
     d="m 38551.3,2430 h 2000"
     id="path2009"
     style="fill:#000000;fill-opacity:0;stroke:#000000;stroke-width:60;stroke-linecap:round;stroke-linejoin:round;stroke-opacity:1" />
  <path
     d="M 41551.3,30 V 2430"
     id="path2010"
     style="fill:#000000;fill-opacity:0;stroke:#000000;stroke-width:60;stroke-linecap:round;stroke-linejoin:round;stroke-opacity:1" />
  <path
     d="M 50551.3,30 V 2430"
     id="path2011"
     style="fill:#000000;fill-opacity:0;stroke:#000000;stroke-width:60;stroke-linecap:round;stroke-linejoin:round;stroke-opacity:1" />
  <path
     d="m 49551.3,2430 2000,2000"
     id="path2012"
     style="fill:#000000;fill-opacity:0;stroke:#000000;stroke-width:60;stroke-linecap:round;stroke-linejoin:round;stroke-opacity:1" />
  <path
     d="m 47551.3,4430 h 1000"
     id="path2013"
     style="fill:#000000;fill-opacity:0;stroke:#000000;stroke-width:60;stroke-linecap:round;stroke-linejoin:round;stroke-opacity:1" />
  <path
     d="m 47551.3,2430 h 2000"
     id="path2014"
     style="fill:#000000;fill-opacity:0;stroke:#000000;stroke-width:60;stroke-linecap:round;stroke-linejoin:round;stroke-opacity:1" />
  <path
     d="m 50551.3,2430 h 1000"
     id="path2015"
     style="fill:#000000;fill-opacity:0;stroke:#000000;stroke-width:60;stroke-linecap:round;stroke-linejoin:round;stroke-opacity:1" />
  <path
     d="M 48551.3,4430 V 30"
     id="path2016"
     style="fill:#000000;fill-opacity:0;stroke:#000000;stroke-width:60;stroke-linecap:round;stroke-linejoin:round;stroke-opacity:1" />
  <path
     d="m 48551.3,30 h -7000"
     id="path2017"
     style="fill:#000000;fill-opacity:0;stroke:#000000;stroke-width:60;stroke-linecap:round;stroke-linejoin:round;stroke-opacity:1" />
  <path
     d="m 41551.3,2430 h 1000"
     id="path2018"
     style="fill:#000000;fill-opacity:0;stroke:#000000;stroke-width:60;stroke-linecap:round;stroke-linejoin:round;stroke-opacity:1" />
  <path
     d="m 39551.3,30 h -7000"
     id="path2020"
     style="fill:#000000;fill-opacity:0;stroke:#000000;stroke-width:60;stroke-linecap:round;stroke-linejoin:round;stroke-opacity:1" />
  <path
     d="m 32551.3,2430 h 1000"
     id="path2021"
     style="fill:#000000;fill-opacity:0;stroke:#000000;stroke-width:60;stroke-linecap:round;stroke-linejoin:round;stroke-opacity:1" />
  <path
     d="M 32551.3,30 V 2430"
     id="path2024"
     style="fill:#000000;fill-opacity:0;stroke:#000000;stroke-width:60;stroke-linecap:round;stroke-linejoin:round;stroke-opacity:1" />
  <path
     d="m 29551.3,2430 h 2000"
     id="path2025"
     style="fill:#000000;fill-opacity:0;stroke:#000000;stroke-width:60;stroke-linecap:round;stroke-linejoin:round;stroke-opacity:1" />
  <path
     d="m 31551.3,2430 2000,2000"
     id="path2026"
     style="fill:#000000;fill-opacity:0;stroke:#000000;stroke-width:60;stroke-linecap:round;stroke-linejoin:round;stroke-opacity:1" />
  <path
     d="M 30551.3,4430 V 30"
     id="path2027"
     style="fill:#000000;fill-opacity:0;stroke:#000000;stroke-width:60;stroke-linecap:round;stroke-linejoin:round;stroke-opacity:1" />
  <path
     d="m 29551.3,4430 h 1000"
     id="path2028"
     style="fill:#000000;fill-opacity:0;stroke:#000000;stroke-width:60;stroke-linecap:round;stroke-linejoin:round;stroke-opacity:1" />
  <path
     d="m 2396.3,4392 h 2100"
     id="path2032"
     style="fill:#000000;fill-opacity:0;stroke:#000000;stroke-width:60;stroke-linecap:round;stroke-linejoin:round;stroke-opacity:1" />
  <path
     d="m 23551.3,2430 h 1000"
     id="path2033"
     style="fill:#000000;fill-opacity:0;stroke:#000000;stroke-width:60;stroke-linecap:round;stroke-linejoin:round;stroke-opacity:1" />
  <path
     d="m 30551.3,30 h -7000"
     id="path2034"
     style="fill:#000000;fill-opacity:0;stroke:#000000;stroke-width:60;stroke-linecap:round;stroke-linejoin:round;stroke-opacity:1" />
  <path
     d="M 23551.3,30 V 2430"
     id="path2035"
     style="fill:#000000;fill-opacity:0;stroke:#000000;stroke-width:60;stroke-linecap:round;stroke-linejoin:round;stroke-opacity:1" />
  <path
     d="m 22496.3,4392 2055,38"
     id="path2037"
     style="fill:#000000;fill-opacity:0;stroke:#000000;stroke-width:60;stroke-linecap:round;stroke-linejoin:round;stroke-opacity:1" />
</svg>
